<svg width="60" height="60" viewBox="0 0 60 60" fill="none" xmlns="http://www.w3.org/2000/svg">
<g clip-path="url(#clip0)">
<path d="M59 54H56V35C55.9996 34.4477 55.5515 34.0004 54.9993 34.0007C54.6734 34.001 54.368 34.16 54.181 34.427L40.181 54.427C39.8645 54.8796 39.9749 55.5031 40.4275 55.8195C40.5954 55.9369 40.7951 55.9999 41 56H54V59C54 59.5522 54.4478 60 55 60C55.5523 60 56 59.5522 56 59V56H59C59.5523 56 60 55.5522 60 55C60 54.4477 59.5523 54 59 54ZM54 54H42.92L54 38.172V54Z" fill="black"/>
<path d="M40.9999 58H29.1609L40.1679 45.039C40.1929 45.0093 40.2163 44.9783 40.2379 44.946C42.3087 41.8813 41.6189 37.7319 38.6679 35.502C35.0798 32.9239 30.0811 33.7428 27.5031 37.3309C26.5254 38.6915 25.9997 40.3246 25.9999 42C25.9999 42.5523 26.4477 43 26.9999 43C27.5522 43 27.9999 42.5523 27.9999 42C27.9996 38.6863 30.6857 35.9998 33.9993 35.9994C35.2553 35.9993 36.4797 36.3933 37.4999 37.126C39.5671 38.7099 40.0484 41.6269 38.5999 43.791L26.2379 58.353C25.8806 58.7741 25.9323 59.4051 26.3534 59.7625C26.5341 59.9158 26.7631 59.9999 26.9999 60H40.9999C41.5522 60 41.9999 59.5523 41.9999 59C41.9999 58.4478 41.5522 58 40.9999 58Z" fill="black"/>
<path d="M27.022 53.019C27.0429 52.4671 26.6122 52.0029 26.0604 51.982C26.0602 51.982 26.0601 51.982 26.06 51.982C13.0137 51.4977 2.54262 41.0454 2.035 28H6C6.55225 28 7 27.5522 7 27C7 26.4478 6.55225 26 6 26H2.035C2.53538 12.9776 12.9775 2.53588 26 2.036V5C26 5.55225 26.4478 6 27 6C27.5522 6 28 5.55225 28 5V2.036C40.8442 2.53275 51.2108 12.7035 51.952 25.536L48.052 21.636C47.6547 21.2522 47.0218 21.2633 46.638 21.6605C46.2638 22.048 46.2638 22.6624 46.638 23.05L52.22 28.632C52.3251 28.7593 52.4606 28.8579 52.614 28.919C52.6531 28.9307 52.6929 28.9405 52.733 28.948C52.8016 28.9727 52.8726 28.9899 52.945 28.999C52.955 28.999 52.964 28.999 52.974 28.999C52.984 28.999 52.993 28.999 53.002 28.999C53.0781 28.9932 53.1534 28.9785 53.226 28.955C53.2671 28.95 53.3079 28.9424 53.348 28.932C53.4834 28.8839 53.6066 28.8067 53.709 28.706L59.367 23.05C59.7506 22.6528 59.7397 22.0198 59.3425 21.636C58.955 21.2617 58.3406 21.2617 57.953 21.636L53.956 25.63C53.2416 11.2962 41.4225 0.035125 27.071 0.014C27.046 0.013 27.025 0 27 0C26.975 0 26.954 0.013 26.929 0.014C12.0728 0.034375 0.034375 12.0728 0.014 26.929C0.014 26.954 0 26.975 0 27C0 27.025 0.013 27.046 0.014 27.071C0.038875 41.5606 11.5064 53.4422 25.986 53.981H26.023C26.5604 53.9809 27.0016 53.556 27.022 53.019Z" fill="black"/>
<path d="M40.4352 13.565C40.0447 13.1746 39.4117 13.1746 39.0212 13.565L28.2752 24.31C27.4633 23.948 26.5359 23.948 25.7242 24.31L20.6362 19.222C20.2389 18.8384 19.6058 18.8494 19.2222 19.2466C18.8479 19.6341 18.8479 20.2485 19.2222 20.636L24.3002 25.714C23.5872 27.2065 24.2192 28.9945 25.7118 29.7074C26.8574 30.2546 28.2237 30.02 29.1212 29.122C30.0236 28.2272 30.2559 26.8572 29.6992 25.715L40.4352 14.979C40.8256 14.5885 40.8256 13.9555 40.4352 13.565ZM27.7074 27.7067C27.7073 27.7069 27.7073 27.7069 27.7072 27.707C27.3117 28.0851 26.6887 28.0851 26.2932 27.707C25.9026 27.3165 25.9026 26.6834 26.2929 26.2927C26.6834 25.9021 27.3166 25.9021 27.7072 26.2925C28.0978 26.683 28.0978 27.3162 27.7074 27.7067Z" fill="black"/>
</g>
<defs>
<clipPath id="clip0">
<rect width="60" height="60" fill="white"/>
</clipPath>
</defs>
</svg>
