<svg width="12" height="13" viewBox="0 0 12 13" fill="none" xmlns="http://www.w3.org/2000/svg">
<path d="M6 1C3.79439 1 2 2.78712 2 4.98377C2 7.70988 5.57961 11.712 5.73201 11.881C5.87516 12.0398 6.1251 12.0395 6.26799 11.881C6.42039 11.712 10 7.70988 10 4.98377C9.99996 2.78712 8.20559 1 6 1ZM6 6.98811C4.8903 6.98811 3.98752 6.08897 3.98752 4.98377C3.98752 3.87857 4.89032 2.97944 6 2.97944C7.10968 2.97944 8.01246 3.87859 8.01246 4.98379C8.01246 6.08899 7.10968 6.98811 6 6.98811Z" stroke="white" stroke-width="0.8"/>
</svg>
