<svg width="20" height="20" viewBox="0 0 20 20" fill="none" xmlns="http://www.w3.org/2000/svg">
<g clip-path="url(#clip0)">
<path d="M7.93637 8.70343C7.93637 9.09192 7.62143 9.40687 7.23294 9.40687C6.84445 9.40687 6.52951 9.09192 6.52951 8.70343C6.52951 8.31494 6.84445 8 7.23294 8C7.62143 8 7.93637 8.31494 7.93637 8.70343Z" fill="black" stroke="black" stroke-width="0.2"/>
<path d="M13.4069 8.70343C13.4069 9.09192 13.0919 9.40687 12.7034 9.40687C12.3149 9.40687 12 9.09192 12 8.70343C12 8.31494 12.3149 8 12.7034 8C13.0919 8 13.4069 8.31494 13.4069 8.70343Z" fill="black" stroke="black" stroke-width="0.2"/>
<path d="M10.04 13.5373C10.392 13.5373 10.7176 13.3774 10.9332 13.0986C11.0323 12.9705 11.0088 12.7863 10.8806 12.6871C10.7524 12.5881 10.5683 12.6116 10.4691 12.7398C10.3655 12.8737 10.2091 12.9506 10.04 12.9506C9.87108 12.9506 9.71467 12.8737 9.61107 12.7399C9.51189 12.6117 9.32756 12.5882 9.19954 12.6874C9.07136 12.7865 9.04786 12.9708 9.14705 13.099C9.36265 13.3774 9.68812 13.5373 10.04 13.5373Z" fill="black" stroke="black" stroke-width="0.2"/>
<path d="M17.0896 7.86315V7.79814C17.0896 4.3588 14.6169 1.48662 11.3561 0.864521C10.9911 0.406298 10.4453 0.0901346 9.83399 0.0155188C9.02893 -0.0830534 8.18969 0.294756 7.74551 0.955312C7.7005 1.02245 7.66052 1.09157 7.62451 1.16222C4.91331 2.14825 2.97163 4.75049 2.97163 7.79814V7.86315C2.11301 7.9666 1.44528 8.70101 1.44528 9.58923C1.44528 10.4776 2.11301 11.212 2.97163 11.3155V11.3159C2.97163 12.3993 3.30106 13.4375 3.92424 14.3181C4.01777 14.4504 4.20088 14.4818 4.33317 14.3881C4.46547 14.2946 4.49675 14.1115 4.40321 13.9792C3.85038 13.1981 3.55833 12.2772 3.55833 11.3159V7.79814C3.55833 5.15684 5.14906 2.88052 7.42248 1.87557C7.36526 2.43145 7.48901 2.95147 7.79266 3.42328C7.8804 3.55954 8.06183 3.59891 8.19809 3.51117C8.33435 3.42343 8.37372 3.242 8.28598 3.10574C8.03344 2.71344 7.94494 2.27597 8.02307 1.80523C8.05389 1.61922 8.12423 1.44344 8.23242 1.28246C8.55637 0.800587 9.17145 0.52547 9.76273 0.597644C10.4471 0.681415 11.0202 1.1668 11.1887 1.80569C11.2534 2.0509 11.2776 2.32922 11.3033 2.62371C11.3216 2.83566 11.3406 3.05478 11.3765 3.26611C11.4598 3.75867 11.656 4.13114 11.8657 4.52207C11.0387 4.64124 9.96445 4.40732 9.18183 3.93613C9.04297 3.85251 8.86276 3.89722 8.77914 4.03607C8.69568 4.17478 8.74039 4.35514 8.87924 4.43876C9.62098 4.88538 10.5624 5.1399 11.4101 5.1399C11.6075 5.1399 11.7999 5.12601 11.9835 5.09763C12.1646 5.06956 12.3218 4.95466 12.4036 4.79032C12.4857 4.62583 12.4828 4.43097 12.3958 4.26908C12.1964 3.89737 12.0241 3.57632 11.955 3.16815C11.9232 2.98031 11.906 2.78241 11.8877 2.5729C11.8611 2.26666 11.8335 1.94988 11.756 1.656C11.7467 1.6206 11.7362 1.58565 11.725 1.55102C14.4747 2.29763 16.5029 4.81534 16.5029 7.79799L16.5027 8.14116V8.14345L16.5024 11.3158C16.5024 12.5394 16.0295 13.6917 15.1708 14.5603C14.3126 15.428 13.1694 15.9117 11.9518 15.922C11.9493 15.922 11.947 15.9221 11.9447 15.9221C11.9336 15.9226 11.9229 15.9224 11.9119 15.9224H8.1488C8.13812 15.9224 8.12729 15.9224 8.11676 15.9221C8.11432 15.9221 8.11188 15.9221 8.10943 15.922C7.07351 15.9134 6.09862 15.5667 5.28975 14.9198C5.16325 14.8186 4.97862 14.8392 4.87746 14.9657C4.77629 15.0922 4.79674 15.2767 4.92323 15.378C5.20583 15.604 5.50658 15.7968 5.82152 15.9566C4.88219 16.6097 4.1316 17.4898 3.64134 18.5205C3.4744 18.8712 3.32761 19.2397 3.20493 19.6155C3.17564 19.7049 3.19105 19.8027 3.24628 19.8789C3.30152 19.955 3.38972 19.9999 3.48371 19.9999H16.577C16.671 19.9999 16.7592 19.955 16.8145 19.8789C16.8697 19.8027 16.8851 19.7049 16.856 19.6155C16.744 19.2726 16.6118 18.9356 16.463 18.6136C15.9618 17.5281 15.1818 16.622 14.2317 15.961C14.728 15.7111 15.1857 15.3795 15.5878 14.9727C16.5558 13.9937 17.0891 12.6949 17.0891 11.3159V11.3153C17.9477 11.212 18.6156 10.4776 18.6156 9.58923C18.6158 8.70101 17.948 7.9666 17.0896 7.86315ZM2.97163 10.7227C2.43772 10.6242 2.03198 10.1535 2.03198 9.58923C2.03198 9.02511 2.43772 8.55437 2.97163 8.45595V10.7227ZM11.4674 16.5093C11.1963 16.9704 10.6891 17.2621 10.1411 17.2621H9.9199C9.37287 17.2621 8.8681 16.9712 8.59421 16.5093H11.4674ZM15.9305 18.8597C16.0137 19.0398 16.0913 19.2249 16.1628 19.4133H3.89814C3.981 19.1947 4.0724 18.9803 4.17112 18.7726C4.66063 17.7437 5.4344 16.8787 6.40853 16.2708C6.43004 16.2573 6.45202 16.2448 6.47353 16.2319C6.94198 16.3922 7.43408 16.4849 7.94052 16.5047C7.95608 16.5428 7.97241 16.5808 7.9895 16.6181C8.33465 17.3657 9.09256 17.8488 9.9199 17.8488H10.1411C10.9581 17.8488 11.7105 17.377 12.0578 16.6471C12.0799 16.6005 12.1007 16.5528 12.1205 16.5045C12.6233 16.4847 13.1133 16.3928 13.5788 16.2348C14.5891 16.8483 15.4189 17.7518 15.9305 18.8597ZM17.0894 10.7227V8.45595C17.6233 8.55453 18.0289 9.02511 18.0289 9.58923C18.0289 10.1535 17.6232 10.6242 17.0894 10.7227Z" fill="black" stroke="black" stroke-width="0.2"/>
</g>
<defs>
<clipPath id="clip0">
<rect width="20" height="20" fill="white"/>
</clipPath>
</defs>
</svg>
