<svg width="20" height="20" viewBox="0 0 20 20" fill="none" xmlns="http://www.w3.org/2000/svg">
<g clip-path="url(#clip0)">
<path d="M19.6667 4.66669H18.3333C18.1493 4.66669 18 4.81594 18 5.00002V7.03355C17.5664 6.65171 16.854 6.33335 15.6667 6.33335C13.4574 6.33335 12.8757 7.43117 12.7222 8.00002H11.3333V7.33335C11.3328 6.96535 11.0347 6.66718 10.6667 6.66669H9.33333C8.96533 6.66718 8.66716 6.96535 8.66667 7.33335H1.66667C1.11458 7.334 0.667318 7.78127 0.666667 8.33335V10H0.333333C0.149251 10 0 10.1493 0 10.3334V15C0 15.1841 0.149251 15.3334 0.333333 15.3334H1.33333C1.49626 15.3334 1.63542 15.2157 1.66211 15.0549L1.94906 13.3334H18.0509L18.3379 15.0549C18.3646 15.2157 18.5037 15.3334 18.6667 15.3334H19.6667C19.8507 15.3334 20 15.1841 20 15V5.00002C20 4.81594 19.8507 4.66669 19.6667 4.66669ZM15.6667 7.00002C17.2288 7.00002 17.7451 7.60468 17.9157 8.00002H13.418C13.5892 7.60337 14.1061 7.00002 15.6667 7.00002ZM18 8.66669V10H11.3333V8.66669H18ZM9.33333 7.33335H10.6667V10H9.33333V7.33335ZM1.33333 8.33335C1.3335 8.14927 1.48258 8.00018 1.66667 8.00002H8.66667V10H1.33333V8.33335ZM0.666667 10.6667H18V12.6667H0.666667V10.6667ZM1.05111 14.6667H0.666667V13.3334H1.27311L1.05111 14.6667ZM19.3333 14.6667H18.9489L18.6667 12.9725V5.33335H19.3333V14.6667Z" fill="black" stroke="black" stroke-width="0.1"/>
</g>
<defs>
<clipPath id="clip0">
<rect width="20" height="20" fill="white"/>
</clipPath>
</defs>
</svg>
