<svg width="180" height="30" viewBox="0 0 180 30" fill="none" xmlns="http://www.w3.org/2000/svg">
<g clip-path="url(#clip0)">
<path d="M70.685 3.05992C70.685 1.57668 71.9037 0.377 73.404 0.377C74.9094 0.377 76.1329 1.57668 76.1329 3.05992C76.1329 4.54124 74.9094 5.74219 73.404 5.74219C71.9037 5.74219 70.685 4.54124 70.685 3.05992Z" fill="#273B7D"/>
<path d="M113.668 20.9017C113.668 19.4178 114.886 18.2169 116.386 18.2169C117.891 18.2169 119.114 19.4178 119.114 20.9017C119.114 22.3817 117.891 23.584 116.386 23.584C114.886 23.584 113.668 22.3817 113.668 20.9017Z" fill="#499FDD"/>
<path d="M25.9751 19.7448C23.6289 19.7448 21.9985 17.9145 21.9985 15.2989C21.9985 12.6841 23.6289 10.855 25.9751 10.855C28.3348 10.855 29.9832 12.6841 29.9832 15.2989C29.9832 17.9558 28.3691 19.7448 25.9751 19.7448ZM25.9751 6.94757C21.0114 6.94757 17.4091 10.4608 17.4091 15.2989C17.4091 20.1371 21.0114 23.6497 25.9751 23.6497C30.9574 23.6497 34.5747 20.1371 34.5747 15.2989C34.5747 10.4608 30.9574 6.94757 25.9751 6.94757Z" fill="#273B7D"/>
<path d="M65.4089 15.7139C65.2159 15.3572 64.9947 15.0552 64.7591 14.8156L64.609 14.6591L64.7669 14.5104C64.9948 14.2745 65.2277 13.9948 65.4523 13.6705L69.8326 7.27415H64.5151L61.2239 12.2776C61.0376 12.5459 60.6615 12.6813 60.0984 12.6813H59.3483V3.2218C59.3483 1.32977 58.1484 1.07229 56.8521 1.07229H54.6328L54.6365 23.4009H59.3483V16.7031H59.7897C60.3268 16.7031 60.6926 16.7642 60.8603 17.0509L63.4595 21.87C64.1856 23.1777 64.9092 23.4009 66.2704 23.4009H69.8812L67.192 19.0313L65.4089 15.7139Z" fill="#273B7D"/>
<path d="M88.2828 6.91468C85.8862 6.91468 84.357 7.96051 83.5 8.84486L83.2139 9.12905L83.1129 8.74251C82.8612 7.79521 82.0127 7.27389 80.7357 7.27389H78.624L78.6372 23.4006H83.317V15.9679C83.317 15.2413 83.4132 14.6106 83.6088 14.0352C84.1297 12.2939 85.5828 11.2112 87.3989 11.2112C88.8597 11.2112 89.4305 11.9684 89.4305 13.9252V20.9491C89.4305 22.6193 90.2168 23.4006 91.9184 23.4006H94.1454L94.1379 13.1439C94.1379 9.06865 92.1146 6.91468 88.2842 6.91468" fill="#273B7D"/>
<path d="M73.4662 7.27391H71.2481L71.2632 19.7431H71.2617V23.3975H73.6293C73.6591 23.3975 73.683 23.4006 73.7128 23.4006L74.8156 23.3975H75.9133V23.3911H75.921L75.9305 9.72225C75.9305 8.07308 75.1278 7.27393 73.4678 7.27393" fill="#273B7D"/>
<path d="M44.3567 19.7448C42.0107 19.7448 40.377 17.9145 40.377 15.2989C40.377 12.6841 42.0107 10.855 44.3567 10.855C46.7114 10.855 48.3644 12.6841 48.3644 15.2989C48.3644 17.9558 46.7509 19.7448 44.3567 19.7448ZM44.3567 6.94757C39.3881 6.94757 35.785 10.4608 35.785 15.2989C35.785 20.1371 39.3881 23.6497 44.3567 23.6497C49.3338 23.6497 52.957 20.1371 52.957 15.2989C52.957 10.4608 49.3338 6.94757 44.3567 6.94757Z" fill="#273B7D"/>
<path d="M144.667 19.7448C142.322 19.7448 140.687 17.9145 140.687 15.2989C140.687 12.6841 142.322 10.855 144.667 10.855C147.022 10.855 148.676 12.6841 148.676 15.2989C148.676 17.9558 147.062 19.7448 144.667 19.7448ZM144.667 6.94757C139.7 6.94757 136.096 10.4608 136.096 15.2989C136.096 20.1371 139.7 23.6497 144.667 23.6497C149.645 23.6497 153.267 20.1371 153.267 15.2989C153.267 10.4608 149.645 6.94757 144.667 6.94757Z" fill="#499FDD"/>
<path d="M104.005 19.037C101.447 19.037 100.536 16.8443 100.536 14.7895C100.536 13.8842 100.769 10.9336 103.759 10.9336C105.245 10.9336 107.226 11.352 107.226 14.9415C107.226 18.3269 105.473 19.037 104.005 19.037ZM109.656 7.23667C108.767 7.23667 108.084 7.58443 107.742 8.21957L107.612 8.46623L107.395 8.28123C106.64 7.6391 105.286 6.87747 103.086 6.87747C98.7103 6.87747 95.7643 10.1059 95.7643 14.9103C95.7643 19.7091 98.8126 23.0627 103.174 23.0627C104.664 23.0627 105.842 22.7213 106.775 22.027L107.136 21.7607V22.2089C107.136 24.3628 105.718 25.5511 103.147 25.5511C101.898 25.5511 100.761 25.2523 100 24.9814C99.0075 24.6871 98.4256 24.9306 98.023 25.909L97.6516 26.8118L97.126 28.1304L97.4516 28.3007C99.0968 29.1584 101.238 29.6702 103.174 29.6702C107.16 29.6702 111.813 27.6663 111.813 22.027L111.83 7.23667H109.656" fill="#273B7D"/>
<path d="M8.54666 19.5634L4.73721 19.5597V15.0859C4.73721 14.1297 5.11457 13.6325 5.94874 13.5181H8.54666C10.4009 13.5181 11.599 14.6669 11.6003 16.5252C11.599 18.4325 10.4307 19.5623 8.54666 19.5635V19.5634ZM4.73721 7.49476V6.31733C4.73721 5.28677 5.18114 4.7966 6.15532 4.73365H8.10456C9.77633 4.73365 10.7776 5.71654 10.7776 7.36062C10.7776 8.61435 10.0922 10.0772 8.16605 10.0772H4.73721V7.49476ZM13.4119 11.9597L12.7232 11.5795L13.3244 11.0747C14.0235 10.4841 15.1956 9.15666 15.1956 6.86283C15.1956 3.35341 12.4243 1.08819 8.13502 1.08819H3.24013V1.08692H2.68282C1.41117 1.13271 0.393711 2.14864 0.379482 3.40555V23.3259H2.62585C2.63154 23.3271 2.63345 23.3259 2.63535 23.3271L8.2317 23.3259C12.9998 23.3259 16.0773 20.7765 16.0773 16.8277C16.0773 14.7018 15.0826 12.8841 13.4109 11.9597" fill="#273B7D"/>
<path d="M174.172 6.96206C172.23 6.96206 170.353 7.85529 169.148 9.35314L168.809 9.77529L168.543 9.30292C167.676 7.75039 166.184 6.96206 164.11 6.96206C161.935 6.96206 160.476 8.1541 159.798 8.86297L159.355 9.33471L159.184 8.7142C158.937 7.82097 158.127 7.32888 156.901 7.32888H154.934L154.915 23.3933H159.384V16.302C159.384 15.6809 159.462 15.0661 159.621 14.4233C160.048 12.71 161.22 10.8669 163.191 11.0513C164.406 11.1657 165 12.0882 165 13.8702V23.3933H169.501V16.302C169.501 15.5258 169.574 14.9447 169.753 14.3617C170.115 12.7259 171.339 11.0487 173.24 11.0487C174.616 11.0487 175.125 11.8142 175.125 13.8702V21.0448C175.125 22.6679 175.862 23.3933 177.513 23.3933H179.617L179.621 13.1378C179.621 9.041 177.784 6.96206 174.171 6.96206" fill="#499FDD"/>
<path d="M133.509 17.8183C133.496 17.8341 131.572 19.826 129.04 19.826C126.734 19.826 124.403 18.4356 124.403 15.3318C124.403 12.6521 126.21 10.7791 128.797 10.7791C129.637 10.7791 130.592 11.0747 130.741 11.5719L130.763 11.6558C131.108 12.783 132.151 12.8434 132.356 12.8434L134.804 12.846V10.7436C134.804 7.97038 131.213 6.9646 128.797 6.9646C123.629 6.9646 119.88 10.4988 119.88 15.3656C119.88 20.2304 123.588 23.7595 128.702 23.7595C133.139 23.7595 135.551 20.8948 135.574 20.8662L135.703 20.711L133.764 17.5513L133.509 17.8183" fill="#499FDD"/>
</g>
<defs>
<clipPath id="clip0">
<rect width="180" height="30" fill="white"/>
</clipPath>
</defs>
</svg>
