<svg width="60" height="60" viewBox="0 0 60 60" fill="none" xmlns="http://www.w3.org/2000/svg">
<g clip-path="url(#clip0)">
<path d="M31 28H29V30H31V28Z" fill="black"/>
<path d="M33 32H27V34H33V32Z" fill="black"/>
<path d="M51.0523 49.998C50.6742 49.9962 50.2968 50.0305 49.9251 50.1001C49.4353 46.8278 46.3856 44.5721 43.1132 45.062C40.5091 45.4517 38.4648 47.4961 38.0751 50.1001C37.3648 49.9641 36.6353 49.9641 35.9251 50.1001C35.4353 46.8278 32.3856 44.5721 29.1132 45.062C26.5091 45.4517 24.4648 47.4961 24.0751 50.1001C23.3648 49.9641 22.6353 49.9641 21.9251 50.1001C21.4353 46.8278 18.3856 44.5721 15.1132 45.062C12.5091 45.4517 10.4648 47.4961 10.0751 50.1001C6.83156 49.4926 3.70968 51.6293 3.10218 54.8728C3.03256 55.2445 2.99843 55.622 3.00006 56.0001V59.0001C3.00006 59.5523 3.44781 60.0001 4.00006 60.0001H14.0001C14.5523 60.0001 15.0001 59.5523 15.0001 59.0001V56.0001C14.9981 55.6648 14.9679 55.3303 14.9101 55.0001H17.0901C17.0322 55.3303 17.0021 55.6648 17.0001 56.0001V59.0001C17.0001 59.5523 17.4478 60.0001 18.0001 60.0001H28.0001C28.5523 60.0001 29.0001 59.5523 29.0001 59.0001V56.0001C28.9981 55.6648 28.9679 55.3303 28.9101 55.0001H31.0901C31.0322 55.3303 31.0021 55.6648 31.0001 56.0001V59.0001C31.0001 59.5523 31.4478 60.0001 32.0001 60.0001H42.0001C42.5523 60.0001 43.0001 59.5523 43.0001 59.0001V56.0001C42.9981 55.6648 42.9679 55.3303 42.9101 55.0001H45.0901C45.0322 55.3303 45.0021 55.6648 45.0001 56.0001V59.0001C45.0001 59.5523 45.4478 60.0001 46.0001 60.0001H56.0001C56.5523 60.0001 57.0001 59.5523 57.0001 59.0001V56.0001C57.0151 52.7002 54.3522 50.013 51.0523 49.998ZM13.0001 58.0001H5.00006V56.0001C5.00006 53.791 6.79093 52.0001 9.00006 52.0001C11.2092 52.0001 13.0001 53.791 13.0001 56.0001V58.0001ZM17.8121 53.0001H14.1881C13.6649 52.0991 12.9173 51.3491 12.0181 50.8231C12.1034 48.6238 13.9554 46.9103 16.1547 46.9957C18.2342 47.0765 19.9014 48.7437 19.9821 50.8231C19.0828 51.3491 18.3352 52.0991 17.8121 53.0001ZM27.0001 58.0001H19.0001V56.0001C19.0001 53.791 20.7909 52.0001 23.0001 52.0001C25.2092 52.0001 27.0001 53.791 27.0001 56.0001V58.0001ZM31.8121 53.0001H28.1881C27.6649 52.0991 26.9173 51.3491 26.0181 50.8231C26.1034 48.6238 27.9554 46.9103 30.1547 46.9957C32.2342 47.0765 33.9013 48.7437 33.9821 50.8231C33.0828 51.3491 32.3352 52.0991 31.8121 53.0001ZM41.0001 58.0001H33.0001V56.0001C33.0001 53.791 34.7909 52.0001 37.0001 52.0001C39.2092 52.0001 41.0001 53.791 41.0001 56.0001V58.0001ZM45.8121 53.0001H42.1881C41.6649 52.0991 40.9173 51.3491 40.0181 50.8231C40.1034 48.6238 41.9554 46.9103 44.1547 46.9957C46.2342 47.0765 47.9014 48.7437 47.9821 50.8231C47.0828 51.3491 46.3352 52.0991 45.8121 53.0001ZM55.0001 58.0001H47.0001V56.0001C47.0001 53.791 48.7909 52.0001 51.0001 52.0001C53.2092 52.0001 55.0001 53.791 55.0001 56.0001V58.0001Z" fill="black"/>
<path d="M59 0H1C0.44775 0 0 0.44775 0 1V5C0 5.55225 0.44775 6 1 6H3V33C3 33.5522 3.44775 34 4 34H22.373L22.834 37H22C21.4478 37 21 37.4478 21 38V42C21 42.5522 21.4478 43 22 43H38C38.5522 43 39 42.5522 39 42V38C39 37.4478 38.5522 37 38 37H37.166L37.627 34H56C56.5522 34 57 33.5522 57 33V6H59C59.5522 6 60 5.55225 60 5V1C60 0.44775 59.5522 0 59 0ZM37 41H23V39H37V41ZM23.166 26H36.834L35.142 37H24.858L23.166 26ZM19.781 24L19.281 22H40.719L40.219 24H19.781ZM55 32H37.935L38.858 26H41C41.459 25.9999 41.8589 25.6874 41.97 25.242L42.97 21.242C43.1036 20.7061 42.7776 20.1634 42.2417 20.0298C42.1626 20.01 42.0815 20 42 20H40V17C40 16.7348 39.8945 16.4805 39.707 16.293L37.7 14.285C37.8958 13.8847 37.9982 13.4455 38 13C38 11.3431 36.6569 10 35 10C33.3431 10 32 11.3431 32 13C32 14.6569 33.3431 16 35 16C35.4455 15.9983 35.8848 15.8958 36.285 15.7L38 17.414V20H22V17.414L23.715 15.7C24.1152 15.8958 24.5545 15.9983 25 16C26.6569 16 28 14.6569 28 13C28 11.3431 26.6569 10 25 10C23.3431 10 22 11.3431 22 13C22.0018 13.4455 22.1042 13.8847 22.3 14.285L20.292 16.293C20.1049 16.4806 19.9998 16.735 20 17V20H18C17.4478 20.0001 17.0001 20.448 17.0002 21.0002C17.0002 21.0817 17.0103 21.1629 17.03 21.242L18.03 25.242C18.1411 25.6874 18.541 25.9999 19 26H21.142L22.065 32H5V6H55V32ZM36 13C36 13.5522 35.5522 14 35 14C34.4478 14 34 13.5522 34 13C34 12.4478 34.4478 12 35 12C35.5522 12 36 12.4478 36 13ZM24 13C24 12.4478 24.4478 12 25 12C25.5522 12 26 12.4478 26 13C26 13.5522 25.5522 14 25 14C24.4478 14 24 13.5522 24 13ZM58 4H2V2H58V4Z" fill="black"/>
</g>
<defs>
<clipPath id="clip0">
<rect width="60" height="60" fill="white"/>
</clipPath>
</defs>
</svg>
