<svg width="20" height="20" viewBox="0 0 20 20" fill="none" xmlns="http://www.w3.org/2000/svg">
<g clip-path="url(#clip0)">
<path d="M10 6.50639C11.7364 6.50639 13.1491 5.0937 13.1491 3.35724C13.1491 1.62081 11.7364 0.20813 10 0.20813C8.26357 0.20813 6.85089 1.62081 6.85089 3.35724C6.85089 5.0937 8.26357 6.50639 10 6.50639ZM10 0.846428C11.3845 0.846428 12.5108 1.97277 12.5108 3.35724C12.5108 4.7417 11.3845 5.86809 10 5.86809C8.61553 5.86809 7.48919 4.7417 7.48919 3.35724C7.48919 1.97277 8.61553 0.846428 10 0.846428Z" fill="black" stroke="black" stroke-width="0.2"/>
<path d="M10 7.78295C12.5452 7.78295 14.635 9.76976 14.7997 12.274H7.42384C7.24758 12.274 7.10469 12.4168 7.10469 12.5931C7.10469 12.7694 7.24758 12.9123 7.42384 12.9123H15.1294C15.3056 12.9123 15.4485 12.7694 15.4485 12.5931C15.4485 9.58882 13.0044 7.14465 10 7.14465C6.99567 7.14465 4.5515 9.58882 4.5515 12.5931C4.5515 12.7694 4.69439 12.9123 4.87065 12.9123H6.14724C6.3235 12.9123 6.46639 12.7694 6.46639 12.5931C6.46639 12.4168 6.3235 12.274 6.14724 12.274H5.20026C5.36503 9.76976 7.45486 7.78295 10 7.78295Z" fill="black" stroke="black" stroke-width="0.2"/>
<path d="M5.97481 16.0728L4.22404 15.779L3.40358 14.2047C3.3486 14.0993 3.23953 14.0331 3.12055 14.0331C3.00158 14.0331 2.89251 14.0993 2.83753 14.2047L2.01706 15.779L0.266298 16.0728C0.148979 16.0925 0.0523409 16.1758 0.0155749 16.289C-0.021191 16.4021 0.00804301 16.5263 0.0913622 16.6111L1.33506 17.8779L1.07349 19.6338C1.05596 19.7515 1.10532 19.8691 1.20157 19.939C1.29775 20.009 1.42494 20.0195 1.5314 19.9665L3.12051 19.1752L4.70962 19.9665C4.75464 19.9889 4.80336 20 4.85183 20C4.91809 20 4.98392 19.9794 5.03945 19.939C5.1357 19.8691 5.18506 19.7515 5.16753 19.6338L4.90596 17.8779L6.14966 16.6111C6.23298 16.5262 6.26221 16.402 6.22545 16.2889C6.18877 16.1758 6.09213 16.0925 5.97481 16.0728ZM4.33919 17.5442C4.26911 17.6156 4.23651 17.7158 4.25128 17.8148L4.44604 19.1221L3.26285 18.5329C3.17328 18.4883 3.06792 18.4883 2.9783 18.5329L1.79506 19.1221L1.98983 17.8148C2.0046 17.7158 1.97204 17.6155 1.90192 17.5442L0.975873 16.601L2.27945 16.3821C2.37817 16.3655 2.4634 16.3036 2.50966 16.2149L3.12055 15.0427L3.73145 16.2149C3.7777 16.3036 3.86294 16.3655 3.96166 16.3821L5.26523 16.601L4.33919 17.5442Z" fill="black" stroke="black" stroke-width="0.2"/>
<path d="M12.8543 16.0728L11.1035 15.779L10.283 14.2047C10.2281 14.0993 10.119 14.0331 10 14.0331C9.88103 14.0331 9.77197 14.0993 9.71699 14.2047L8.89652 15.779L7.14575 16.0728C7.02843 16.0925 6.93179 16.1758 6.89502 16.289C6.85826 16.4021 6.88749 16.5263 6.97081 16.6111L8.21452 17.8779L7.95298 19.6338C7.93545 19.7515 7.98481 19.8691 8.08107 19.939C8.17724 20.009 8.30443 20.0195 8.4109 19.9665L10 19.1752L11.5891 19.9665C11.6341 19.9889 11.6829 20 11.7313 20C11.7976 20 11.8634 19.9794 11.9189 19.939C12.0152 19.8691 12.0646 19.7515 12.047 19.6338L11.7855 17.8779L13.0292 16.6111C13.1125 16.5262 13.1418 16.402 13.105 16.2889C13.0682 16.1758 12.9716 16.0925 12.8543 16.0728ZM11.2187 17.5442C11.1486 17.6156 11.116 17.7158 11.1307 17.8148L11.3255 19.1221L10.1423 18.5329C10.0975 18.5106 10.0487 18.4995 10 18.4995C9.95129 18.4995 9.90252 18.5106 9.85775 18.5329L8.67456 19.1221L8.86928 17.8148C8.88405 17.7158 8.8515 17.6155 8.78137 17.5442L7.85532 16.601L9.1589 16.3821C9.25762 16.3655 9.34286 16.3036 9.38911 16.2149L10 15.0427L10.6109 16.2149C10.6572 16.3037 10.7424 16.3656 10.8411 16.3822L12.1447 16.601L11.2187 17.5442Z" fill="black" stroke="black" stroke-width="0.2"/>
<path d="M19.9844 16.289C19.9476 16.1758 19.851 16.0925 19.7337 16.0728L17.9829 15.779L17.1624 14.2047C17.1074 14.0993 16.9984 14.0331 16.8794 14.0331C16.7604 14.0331 16.6514 14.0993 16.5964 14.2047L15.7759 15.779L14.0251 16.0728C13.9078 16.0925 13.8112 16.1758 13.7744 16.289C13.7376 16.4021 13.7669 16.5263 13.8502 16.6111L15.0939 17.8779L14.8323 19.6338C14.8148 19.7515 14.8642 19.8691 14.9604 19.939C15.0566 20.009 15.1838 20.0195 15.2902 19.9665L16.8794 19.1752L18.4685 19.9665C18.5135 19.9889 18.5622 20 18.6107 20C18.6769 20 18.7428 19.9794 18.7983 19.939C18.8946 19.8691 18.9439 19.7515 18.9264 19.6338L18.6648 17.8779L19.9085 16.6111C19.9919 16.5263 20.0211 16.4021 19.9844 16.289ZM18.0981 17.5442C18.028 17.6156 17.9954 17.7158 18.0102 17.8148L18.2049 19.1221L17.0217 18.5329C16.9769 18.5106 16.9282 18.4995 16.8794 18.4995C16.8307 18.4995 16.7819 18.5106 16.7372 18.5329L15.554 19.1221L15.7488 17.8148C15.7635 17.7158 15.731 17.6155 15.6608 17.5442L14.7348 16.601L16.0384 16.3821C16.1371 16.3655 16.2223 16.3036 16.2686 16.2149L16.8795 15.0427L17.4904 16.2149C17.5366 16.3036 17.6219 16.3655 17.7206 16.3821L19.0242 16.601L18.0981 17.5442Z" fill="black" stroke="black" stroke-width="0.2"/>
</g>
<defs>
<clipPath id="clip0">
<rect width="20" height="20" fill="white"/>
</clipPath>
</defs>
</svg>
