<svg width="60" height="60" viewBox="0 0 60 60" fill="none" xmlns="http://www.w3.org/2000/svg">
<g clip-path="url(#clip0)">
<path d="M39.2547 0C28.0728 0 18.9755 9.09727 18.9755 20.2792C18.9755 22.7651 19.4172 25.1808 20.2893 27.4748L0.899016 46.8666C0.621868 47.1438 0.466125 47.5196 0.466125 47.9115V58.5221C0.466125 59.3384 1.12777 60 1.94398 60H10.688C11.0796 60 11.455 59.8447 11.7322 59.568L14.6789 56.6258C14.9566 56.3486 15.1126 55.9723 15.1126 55.5799V51.9616H18.7263C19.5425 51.9616 20.2041 51.3 20.2041 50.4838V49.0354H21.6527C22.4688 49.0354 23.1305 48.3737 23.1305 47.5575V44.3775H26.3105C26.7024 44.3775 27.0782 44.2218 27.3555 43.9446L32.0572 39.2429C34.3516 40.1159 36.7676 40.5581 39.2545 40.5581C50.4364 40.5581 59.5337 31.4609 59.5337 20.2789C59.5338 9.09727 50.4366 0 39.2547 0ZM39.2547 37.6024C36.8357 37.6024 34.4962 37.1139 32.3009 36.1501C31.7333 35.901 31.094 36.0381 30.6754 36.446C30.6709 36.4504 30.6664 36.4539 30.6619 36.4584L25.6986 41.4218H21.6529C20.8367 41.4218 20.1751 42.0834 20.1751 42.8996V46.0797H18.7265C17.9104 46.0797 17.2487 46.7413 17.2487 47.5575V49.0059H13.6348C12.8187 49.0059 12.157 49.6676 12.157 50.4838V54.967L10.0766 57.0442H3.42206V54.9558L21.4855 36.8925C22.005 36.373 22.005 35.5309 21.4855 35.0115C20.966 34.4921 20.1241 34.4919 19.6042 35.0115L3.42206 51.1938V48.5238L23.0739 28.8705C23.0784 28.8661 23.0818 28.862 23.0859 28.8577C23.4939 28.4394 23.6315 27.8002 23.3824 27.232C22.4196 25.0369 21.9316 22.6975 21.9316 20.2793C21.9316 10.7271 29.7029 2.95582 39.2551 2.95582C48.8073 2.95582 56.5783 10.727 56.5783 20.2793C56.5781 29.8313 48.8067 37.6024 39.2547 37.6024Z" fill="black" stroke="white" stroke-width="0.6"/>
<path d="M45.4265 8.57153C42.3741 8.57153 39.8909 11.0547 39.8909 14.1071C39.8909 17.1595 42.3741 19.6427 45.4265 19.6427C48.4788 19.6427 50.962 17.1595 50.962 14.1071C50.962 11.0547 48.479 8.57153 45.4265 8.57153ZM45.4265 16.687C44.0039 16.687 42.8466 15.5297 42.8466 14.1071C42.8466 12.6846 44.0039 11.5272 45.4265 11.5272C46.849 11.5272 48.0063 12.6846 48.0063 14.1071C48.0063 15.5297 46.849 16.687 45.4265 16.687Z" fill="black" stroke="white"/>
</g>
<defs>
<clipPath id="clip0">
<rect width="60" height="60" fill="white"/>
</clipPath>
</defs>
</svg>
