<svg width="60" height="60" viewBox="0 0 60 60" fill="none" xmlns="http://www.w3.org/2000/svg">
<g clip-path="url(#clip0)">
<path d="M19.6845 41.0712C22.1556 44.5552 24.6226 47.6713 26.2576 49.6782C26.4956 49.9703 26.7186 50.2412 26.9346 50.5022H22.0006C21.4483 50.5022 21.0007 50.9498 21.0007 51.5021C21.0007 52.0544 21.4483 52.5021 22.0006 52.5021H38.0005C38.5528 52.5021 39.0005 52.0544 39.0005 51.5021C39.0005 50.9498 38.5528 50.5022 38.0005 50.5022H33.0666C33.2826 50.2412 33.5056 49.9701 33.7446 49.6782C35.3786 47.6782 37.8447 44.5552 40.3166 41.0712C42.7693 37.6839 44.9769 34.1259 46.9226 30.4242C48.9646 26.4142 50.0007 23.0852 50.0007 20.5292C50.0075 15.2182 47.9 10.1228 44.1437 6.36813C43.8928 6.10797 43.521 6.00344 43.1713 6.09473C42.8217 6.18602 42.5484 6.45883 42.4566 6.80841C42.3649 7.15798 42.4688 7.52982 42.7286 7.78107C46.1097 11.1612 48.0066 15.7481 48.0007 20.5291C48.0007 22.7672 47.0387 25.7911 45.1407 29.5161C43.2388 33.132 41.0813 36.6075 38.6847 39.9162C36.2467 43.3552 33.8097 46.4362 32.1947 48.4162C31.6577 49.0742 31.1747 49.6562 30.7627 50.1483C30.5704 50.3679 30.2926 50.4937 30.0007 50.4937C29.7088 50.4937 29.4311 50.3678 29.2388 50.1483C28.8267 49.6563 28.3438 49.0742 27.8067 48.4162C26.1917 46.4373 23.7547 43.3562 21.3167 39.9162C18.9201 36.6075 16.7626 33.132 14.8607 29.5161C12.9608 25.7911 12.0008 22.7672 12.0008 20.5291C12.0002 13.2859 16.3319 6.74466 23.0008 3.91808C27.4819 2.03909 32.5299 2.03909 37.0109 3.91808C37.34 4.05754 37.7184 4.01101 38.0037 3.79574C38.2891 3.58058 38.4379 3.22949 38.3942 2.87476C38.3505 2.52003 38.1209 2.21558 37.7918 2.07612C27.6084 -2.21905 15.8711 2.55214 11.5728 12.7341C10.5304 15.2005 9.99578 17.8516 10.0008 20.5291C10.0008 23.0851 11.0369 26.4142 13.0789 30.4292C15.0244 34.1291 17.2321 37.6856 19.6845 41.0712Z" fill="black"/>
<path d="M30.0005 11.5021C30.5528 11.5021 31.0004 11.0545 31.0004 10.5022C31.0004 9.94985 30.5528 9.5022 30.0005 9.5022C25.2297 9.50208 21.1232 12.8722 20.1924 17.5513C19.2616 22.2303 21.7658 26.9153 26.1733 28.7411C30.5809 30.5668 35.6644 29.0248 38.315 25.0581C40.9655 21.0914 40.4448 15.8047 37.0715 12.4312C36.8203 12.1713 36.4486 12.067 36.0989 12.1585C35.7494 12.25 35.4763 12.5231 35.3848 12.8726C35.2933 13.2223 35.3976 13.594 35.6575 13.8452C38.3563 16.5439 38.7729 20.7731 36.6526 23.9465C34.5324 27.12 30.4656 28.3538 26.9395 26.8934C23.4135 25.433 21.41 21.6851 22.1544 17.9417C22.8988 14.1984 26.1839 11.5022 30.0005 11.5021Z" fill="black"/>
<path d="M59.6236 55.0734L53.4736 44.0733C52.9175 43.0959 51.877 42.4952 50.7526 42.5023H43.6256C43.0733 42.5023 42.6256 42.9499 42.6256 43.5022C42.6256 44.0545 43.0733 44.5022 43.6256 44.5022H50.7526C51.1529 44.4945 51.5264 44.7032 51.7296 45.0482L57.8776 56.0483C58.0451 56.3344 58.0416 56.6894 57.8686 56.9723C57.6644 57.3098 57.295 57.5119 56.9006 57.5023H3.10046C2.70648 57.5117 2.33757 57.3094 2.13343 56.9723C1.96046 56.6894 1.95706 56.3344 2.1244 56.0483L8.27244 45.0482C8.47529 44.7033 8.84841 44.4946 9.24838 44.5022H16.3754C16.9277 44.5022 17.3754 44.0545 17.3754 43.5022C17.3754 42.9499 16.9277 42.5023 16.3754 42.5023H9.24849C8.12349 42.4949 7.08216 43.0956 6.52552 44.0733L0.376428 55.0734C-0.13627 55.979 -0.124434 57.0899 0.407483 57.9844C0.967876 58.9369 1.9955 59.5162 3.10046 59.5025H56.9006C58.0053 59.5159 59.0325 58.9367 59.5927 57.9844C60.1246 57.0898 60.1364 55.979 59.6236 55.0734Z" fill="black"/>
<path d="M49.0006 47.5022H45.0007C44.8032 47.5025 44.6102 47.5609 44.4457 47.6702L41.4456 49.6703C40.9861 49.9769 40.8622 50.5978 41.1686 51.0573C41.4752 51.5168 42.0962 51.6408 42.5556 51.3344L45.3007 49.5024H49.0006C49.5529 49.5024 50.0006 49.0546 50.0006 48.5024C50.0006 47.9499 49.5529 47.5022 49.0006 47.5022Z" fill="black"/>
<path d="M43.0006 54.5022C43.0006 55.0545 43.4483 55.5021 44.0006 55.5021H52.0006C52.5529 55.5021 53.0006 55.0545 53.0006 54.5022C53.0006 53.9499 52.5529 53.5022 52.0006 53.5022H44.0006C43.4483 53.5022 43.0006 53.9499 43.0006 54.5022Z" fill="black"/>
<path d="M18.0004 51.5023C18.4413 51.5029 18.8305 51.2146 18.9586 50.7927C19.0866 50.3708 18.9233 49.9149 18.5565 49.6703L15.5565 47.6702C15.3917 47.5608 15.1982 47.5023 15.0004 47.5022H11.0004C10.4481 47.5022 10.0005 47.95 10.0005 48.5022C10.0005 49.0545 10.4483 49.5021 11.0004 49.5021H14.7004L17.4485 51.3341C17.612 51.4434 17.804 51.5018 18.0004 51.5023Z" fill="black"/>
<path d="M8.00043 53.5022C7.44812 53.5022 7.00046 53.9499 7.00046 54.5022C7.00046 55.0545 7.44812 55.5021 8.00043 55.5021H16.0005C16.5528 55.5021 17.0005 55.0545 17.0005 54.5022C17.0005 53.9499 16.5528 53.5022 16.0005 53.5022H8.00043Z" fill="black"/>
</g>
<defs>
<clipPath id="clip0">
<rect width="60" height="60" fill="white"/>
</clipPath>
</defs>
</svg>
