<svg width="12" height="12" viewBox="0 0 12 12" fill="none" xmlns="http://www.w3.org/2000/svg">
<g clip-path="url(#clip0)">
<path d="M11.6853 1.60036C11.4755 1.39051 11.2232 1.28564 10.9286 1.28564H1.07145C0.776816 1.28564 0.524539 1.39051 0.314714 1.60036C0.104866 1.81016 0 2.06241 0 2.3571V9.64287C0 9.9376 0.104866 10.1896 0.314714 10.3994C0.524515 10.6094 0.776793 10.7142 1.07145 10.7142H10.9286C11.2232 10.7142 11.4755 10.6094 11.6853 10.3994C11.8952 10.1896 12 9.93746 12 9.64287V2.3571C12 2.06241 11.8952 1.81016 11.6853 1.60036ZM11.1428 9.6427C11.1428 9.70075 11.1216 9.75097 11.0791 9.79337C11.0367 9.83583 10.9865 9.85684 10.9285 9.85684H1.07138C1.01336 9.85684 0.963116 9.83583 0.920734 9.79337C0.878305 9.75097 0.857125 9.70075 0.857125 9.6427V4.49988C0.999964 4.6606 1.15399 4.80794 1.31918 4.94184C2.51565 5.86147 3.46652 6.61589 4.17189 7.20521C4.39957 7.39721 4.58486 7.54673 4.7277 7.65389C4.87054 7.7611 5.06361 7.86932 5.30689 7.97864C5.55018 8.08813 5.779 8.14262 5.99328 8.14262H6.00002H6.00668C6.22091 8.14262 6.44983 8.08813 6.69303 7.97864C6.93639 7.86932 7.12959 7.76113 7.27238 7.65389C7.4152 7.54673 7.60051 7.39721 7.82821 7.20521C8.53358 6.61589 9.48434 5.86147 10.6809 4.94184C10.846 4.80796 11.0001 4.6606 11.1428 4.49988V9.6427ZM11.1428 2.53115V2.6048C11.1428 2.86817 11.0391 3.16173 10.8315 3.48536C10.6239 3.80898 10.3995 4.06684 10.1586 4.25875C9.29684 4.93743 8.40189 5.64494 7.47313 6.38153C7.44639 6.40383 7.36819 6.46965 7.23868 6.57897C7.10935 6.68846 7.00662 6.77226 6.93069 6.83021C6.85468 6.88834 6.75547 6.95863 6.63275 7.04114C6.50994 7.12365 6.39724 7.18515 6.29458 7.22528C6.19192 7.26532 6.09592 7.28537 6.00668 7.28537H6.00002H5.99328C5.90402 7.28537 5.80811 7.26532 5.70538 7.22528C5.60272 7.18515 5.48995 7.12365 5.36723 7.04114C5.24454 6.95861 5.14519 6.88831 5.06929 6.83021C4.99344 6.77226 4.89071 6.68846 4.76128 6.57897C4.63182 6.46965 4.55362 6.40383 4.52686 6.38153C3.59831 5.64491 2.70326 4.93743 1.84161 4.25875C1.18533 3.74096 0.857242 3.10699 0.857242 2.35698C0.857242 2.299 0.878422 2.24874 0.920851 2.20638C0.963281 2.16395 1.01347 2.14272 1.0715 2.14272H10.9287C10.9643 2.16278 10.9956 2.16836 11.0224 2.15949C11.0492 2.15046 11.0693 2.16726 11.0826 2.20964C11.096 2.25207 11.1083 2.27212 11.1194 2.26992C11.1306 2.26766 11.1373 2.29555 11.1396 2.35367C11.1417 2.41168 11.1428 2.44088 11.1428 2.44088V2.53115H11.1428Z" fill="white"/>
</g>
<defs>
<clipPath id="clip0">
<rect width="12" height="12" fill="white"/>
</clipPath>
</defs>
</svg>
