<svg width="20" height="20" viewBox="0 0 20 20" fill="none" xmlns="http://www.w3.org/2000/svg">
<g clip-path="url(#clip0)">
<path d="M17.7083 18.3464H2.29172C1.02753 18.3464 0 17.3189 0 16.0547V5.638C0 4.37381 1.02753 3.34644 2.29172 3.34644H7.29172C7.63672 3.34644 7.91672 3.62643 7.91672 3.97144C7.91672 4.31644 7.63672 4.59644 7.29172 4.59644H2.29172C1.71753 4.59644 1.25 5.06381 1.25 5.638V16.0547C1.25 16.6289 1.71753 17.0964 2.29172 17.0964H17.7083C18.2825 17.0964 18.75 16.6289 18.75 16.0547V5.638C18.75 5.06381 18.2825 4.59644 17.7083 4.59644H12.7083C12.3633 4.59644 12.0833 4.31644 12.0833 3.97144C12.0833 3.62643 12.3633 3.34644 12.7083 3.34644H17.7083C18.9725 3.34644 20 4.37381 20 5.638V16.0547C20 17.3189 18.9725 18.3464 17.7083 18.3464Z" fill="black" stroke="white" stroke-width="0.2"/>
<path d="M11.875 6.26297H8.125C7.32086 6.26297 6.66672 5.60883 6.66672 4.80469V3.13797C6.66672 2.33383 7.32086 1.67969 8.125 1.67969H11.875C12.6791 1.67969 13.3333 2.33383 13.3333 3.13797V4.80469C13.3333 5.60883 12.6791 6.26297 11.875 6.26297ZM8.125 2.92969C8.00995 2.92969 7.91672 3.02307 7.91672 3.13797V4.80469C7.91672 4.91974 8.00995 5.01297 8.125 5.01297H11.875C11.9901 5.01297 12.0833 4.91974 12.0833 4.80469V3.13797C12.0833 3.02307 11.9901 2.92969 11.875 2.92969H8.125Z" fill="black" stroke="white" stroke-width="0.2"/>
<path d="M6.25 11.6797C5.10162 11.6797 4.16672 10.7446 4.16672 9.59637C4.16672 8.448 5.10162 7.51294 6.25 7.51294C7.39838 7.51294 8.33328 8.448 8.33328 9.59637C8.33328 10.7446 7.39838 11.6797 6.25 11.6797ZM6.25 8.76294C5.79086 8.76294 5.41672 9.13708 5.41672 9.59637C5.41672 10.0555 5.79086 10.4297 6.25 10.4297C6.70914 10.4297 7.08328 10.0555 7.08328 9.59637C7.08328 9.13708 6.70914 8.76294 6.25 8.76294Z" fill="black" stroke="white" stroke-width="0.2"/>
<path d="M9.375 15.8464C9.03 15.8464 8.75 15.5664 8.75 15.2214V14.8047C8.75 14.2305 8.28247 13.7629 7.70828 13.7629H4.79172C4.21753 13.7629 3.75 14.2305 3.75 14.8047V15.2214C3.75 15.5664 3.47 15.8464 3.125 15.8464C2.78 15.8464 2.5 15.5664 2.5 15.2214V14.8047C2.5 13.5405 3.52753 12.5129 4.79172 12.5129H7.70828C8.97247 12.5129 10 13.5405 10 14.8047V15.2214C10 15.5664 9.72 15.8464 9.375 15.8464Z" fill="black" stroke="white" stroke-width="0.2"/>
<path d="M16.875 9.17969H12.2917C11.9467 9.17969 11.6667 8.89969 11.6667 8.55469C11.6667 8.20969 11.9467 7.92969 12.2917 7.92969H16.875C17.22 7.92969 17.5 8.20969 17.5 8.55469C17.5 8.89969 17.22 9.17969 16.875 9.17969Z" fill="black" stroke="white" stroke-width="0.2"/>
<path d="M16.875 12.5129H12.2917C11.9467 12.5129 11.6667 12.2329 11.6667 11.8879C11.6667 11.5429 11.9467 11.2629 12.2917 11.2629H16.875C17.22 11.2629 17.5 11.5429 17.5 11.8879C17.5 12.2329 17.22 12.5129 16.875 12.5129Z" fill="black" stroke="white" stroke-width="0.2"/>
<path d="M16.875 15.8464H12.2917C11.9467 15.8464 11.6667 15.5664 11.6667 15.2214C11.6667 14.8764 11.9467 14.5964 12.2917 14.5964H16.875C17.22 14.5964 17.5 14.8764 17.5 15.2214C17.5 15.5664 17.22 15.8464 16.875 15.8464Z" fill="black" stroke="white" stroke-width="0.2"/>
</g>
<defs>
<clipPath id="clip0">
<rect width="20" height="20" fill="white"/>
</clipPath>
</defs>
</svg>
