<svg width="130" height="47" viewBox="0 0 130 47" fill="none" xmlns="http://www.w3.org/2000/svg">
<path fill-rule="evenodd" clip-rule="evenodd" d="M83.4446 22.3528C83.0851 21.9366 83.0565 21.362 82.8143 20.8929C82.5939 20.4662 82.2881 20.2069 81.8771 19.9664C80.7766 19.3225 79.427 19.1383 78.1999 19.5005C77.7247 19.6407 77.2459 19.8728 76.8766 20.2063C76.595 20.4605 76.3572 20.7953 76.3137 21.1803C76.2586 21.6673 76.5318 22.0814 76.8793 22.3965C77.1719 22.6618 77.6235 22.8802 77.9716 23.0705C79.6882 24.009 81.3776 24.9943 83.0826 25.9533C84.897 26.9736 86.3072 28.6327 86.5753 30.74C86.8606 32.9815 85.7679 35.0019 84.1051 36.4439C82.6232 37.7292 80.655 38.3529 78.7123 38.4326C77.2582 38.4924 75.7539 38.2512 74.4084 37.6923C73.1442 37.1674 71.9832 36.3428 71.2202 35.1942C70.0836 33.4829 70.1161 31.5089 70.81 29.6329C70.9076 29.3689 71.0512 29.1031 71.1956 28.8618C71.3433 28.6149 71.5103 28.3633 71.693 28.1407C71.818 27.9885 72.0475 27.7083 72.2743 27.8256C72.427 27.9047 72.4274 28.0769 72.3993 28.2218C72.3672 28.387 72.3017 28.5634 72.2411 28.7201C71.6357 30.2844 71.4223 32.0727 72.2018 33.6189C72.8568 34.9181 74.0593 35.7331 75.4129 36.1926C76.7147 36.6345 78.1848 36.7427 79.4781 36.211C80.4142 35.8262 81.2354 35.09 81.4835 34.083C81.6484 33.4132 81.5239 32.7447 81.1913 32.146C80.735 31.3246 79.935 30.7016 79.1232 30.2537L79.1194 30.2516L74.1422 27.2267L74.1315 27.2181C72.2823 25.7316 71.5741 23.7356 72.1504 21.4177C72.4024 20.4042 72.8923 19.5245 73.7263 18.8757C74.7843 18.0525 76.1825 17.7692 77.4922 17.6721C78.2486 17.6159 79.012 17.6188 79.7697 17.645C80.5652 17.6725 81.3599 17.7269 82.1539 17.7823C82.858 17.8314 83.5623 17.8821 84.2673 17.9166L84.5021 17.9281L83.7412 22.6963L83.4446 22.3528V22.3528Z" fill="#F18917"/>
<path fill-rule="evenodd" clip-rule="evenodd" d="M61.8248 19.7606C61.3431 19.7584 60.8623 19.751 60.3803 19.7708C59.6826 19.7994 58.4162 19.8935 57.9671 20.5131C57.7066 20.8724 57.7731 21.3392 57.9032 21.7352C58.0299 21.984 58.1914 22.1794 58.4422 22.312C58.601 22.3959 58.7781 22.4473 58.952 22.4899C59.1718 22.5437 59.3941 22.5865 59.6138 22.6413L60.0087 22.7399L59.7 23.0043C59.2004 23.4321 58.5758 23.6196 57.9273 23.4737C56.9132 23.2455 56.0545 22.2441 56.0545 21.1981C56.0545 19.3873 57.1923 18.3538 58.9144 18.1081C59.3946 18.0396 59.8815 17.9997 60.3656 17.9713C60.9011 17.9398 61.4379 17.9233 61.9742 17.9134C62.6815 17.9005 63.3889 17.9001 64.0964 17.9001C64.4328 17.9001 64.7845 17.8644 65.1192 17.8311C65.5639 17.7868 66.0079 17.735 66.4523 17.6878C67.0229 17.6273 67.6053 17.5677 68.1789 17.5548C68.5053 17.5474 69.0863 17.5436 69.3657 17.7296L69.6668 17.9302L69.343 18.092C69.106 18.2103 68.856 18.3049 68.6106 18.4042C68.2545 18.5484 67.7651 18.7481 67.5403 19.074C67.4406 19.2184 67.3985 19.3766 67.3985 19.5511C67.3985 20.9922 67.3985 22.4333 67.3985 23.8744C67.3985 26.6878 67.3985 29.5014 67.3985 32.3149C67.3985 32.7404 67.4105 33.1717 67.4559 33.5952C67.4864 33.8791 67.5326 34.172 67.6173 34.4454C67.7226 34.7853 67.8759 35.0639 68.172 35.2717C68.3282 35.3813 68.5067 35.4626 68.6815 35.5381C68.9038 35.6341 69.1259 35.7244 69.343 35.8328L70.1392 36.2305H59.084L59.8803 35.8328C60.1066 35.7198 60.3382 35.6266 60.5703 35.5273C60.7503 35.4502 60.9351 35.3668 61.0948 35.2526C61.3713 35.0547 61.518 34.793 61.6185 34.4734C61.6978 34.2214 61.7418 33.9518 61.7706 33.6898C61.8132 33.3032 61.8248 32.9094 61.8248 32.5208V19.7606V19.7606Z" fill="#F18917"/>
<path fill-rule="evenodd" clip-rule="evenodd" d="M30.2963 25.8564L28.5944 30.0112H31.9207C31.3704 28.6301 30.8444 27.2385 30.2963 25.8564V25.8564ZM32.6516 31.8682H27.8336C27.4665 32.7645 27.0993 33.6609 26.7321 34.5572C26.6576 34.7393 26.6184 34.9374 26.7118 35.1202C26.8706 35.4312 27.4213 35.6739 27.7206 35.8362L28.4478 36.2307H20.6181L22.1237 35.8182C22.6283 35.68 23.1378 35.4568 23.5732 35.1664C23.7927 35.02 24.1715 34.7286 24.271 34.4749C25.0131 32.5829 25.7558 30.6911 26.4978 28.7992C27.2233 26.9492 27.9535 25.1002 28.6713 23.2472C28.9115 22.6275 28.9761 22.4966 28.7364 21.8593C28.4716 21.2001 28.1813 20.5131 27.8099 19.9059C27.5269 19.4435 27.1832 19.0123 26.7248 18.7118C25.9041 18.1741 24.8773 18.1838 23.9401 18.3171L23.2944 18.4091L23.764 17.9581C24.4643 17.2857 24.9744 16.9094 25.92 16.6738C27.3101 16.3276 28.6831 16.3907 29.9948 16.9862C32.1952 17.9853 33.7283 20.2562 34.8016 22.3297C35.3196 23.3304 35.7713 24.3651 36.1931 25.4091C36.5608 26.3191 36.9023 27.2381 37.2606 28.1515C37.7164 29.3133 38.137 30.4884 38.5991 31.6478C40.2378 35.7603 42.3644 39.6597 47.4037 39.6597H47.9127L47.5528 40.0182C46.2327 41.3332 43.8934 41.5271 42.1377 41.3188C40.6571 41.1432 38.9244 40.6118 37.785 39.6171C37.5007 39.3689 37.2213 39.1153 36.9502 38.8528C36.0898 38.0197 35.3687 37.135 34.73 36.1221C33.892 34.7931 33.2291 33.3277 32.6516 31.8682Z" fill="#F18917"/>
<path fill-rule="evenodd" clip-rule="evenodd" d="M0 26.8119C0 24.3718 0.960856 22.1948 2.66178 20.4582C4.08002 19.0101 6.01638 17.8871 7.99177 17.4044L8.42492 17.2985L8.23205 17.6992C7.97183 18.2397 7.70886 18.7804 7.4613 19.3268C7.29558 19.6926 7.12908 20.0722 7.0063 20.4548L7.00247 20.4667L6.99725 20.4781C6.56832 21.4136 6.33142 22.4962 6.20557 23.5132C6.05626 24.7205 6.04851 25.965 6.16232 27.1757C6.30412 28.685 6.64792 30.2682 7.28591 31.65C7.81853 32.8034 8.61788 33.9331 9.77736 34.5263C10.3921 34.8408 11.0543 34.975 11.7436 34.9494C12.6249 34.9167 13.4501 34.6689 14.1888 34.1862C15.3605 33.4206 16.139 32.1833 16.6152 30.894C17.1575 29.426 17.3554 27.7847 17.2828 26.2266C17.2019 24.4881 16.7728 22.6546 15.8965 21.1376C15.561 20.5569 15.1076 20.0437 14.5187 19.7095C14.0254 19.4297 13.4752 19.2986 12.9082 19.3279C11.9976 19.3749 11.1557 19.8261 10.5504 20.4947C9.83035 21.2902 9.48931 22.3245 9.48931 23.3873C9.48931 23.7175 9.53256 24.0168 9.60427 24.3374C9.64691 24.528 9.73464 24.7988 9.59814 24.9678C9.51853 25.0664 9.39989 25.0955 9.27849 25.0955H9.18263L9.11959 25.0236C7.96953 23.7098 7.91585 21.7162 8.59594 20.1727C8.97249 19.3181 9.57114 18.5834 10.3486 18.0598C11.2556 17.4488 12.3121 17.1843 13.4001 17.1843C13.5443 17.1843 13.6884 17.1843 13.8326 17.1868C14.3292 17.1953 14.7906 17.2413 15.2766 17.3484C15.9992 17.5077 16.7151 17.7734 17.3968 18.0566C17.5915 18.1375 17.7846 18.2368 17.9695 18.3375C18.254 18.4926 18.5315 18.6623 18.8012 18.8417C19.5375 19.3312 20.2296 19.9033 20.8424 20.5398C22.5075 22.2692 23.5029 24.3886 23.5029 26.8119C23.5029 29.2809 22.5761 31.4452 20.801 33.1623C20.2107 33.7335 19.5505 34.2312 18.8483 34.6579C16.786 35.911 14.1697 36.6535 11.7515 36.6535C9.63648 36.6535 7.49352 36.1441 5.6116 35.1813C3.80378 34.2563 2.20002 32.8901 1.17091 31.1289C0.397717 29.8055 0 28.3436 0 26.8119H0Z" fill="#F18917"/>
<path fill-rule="evenodd" clip-rule="evenodd" d="M53.853 22.3528C53.4935 21.9366 53.4649 21.362 53.2226 20.8929C53.0024 20.4662 52.6965 20.2069 52.2855 19.9664C51.1849 19.3225 49.8353 19.1383 48.6082 19.5005C48.133 19.6407 47.6543 19.8728 47.2849 20.2063C47.0034 20.4605 46.7656 20.7953 46.7221 21.1803C46.667 21.6673 46.9403 22.0814 47.2877 22.3965C47.5802 22.6618 48.0319 22.8802 48.3799 23.0705C50.0965 24.009 51.786 24.9943 53.491 25.9533C55.3053 26.9736 56.7155 28.6327 56.9837 30.74C57.2689 32.9815 56.1762 35.0019 54.5135 36.4439C53.0315 37.7292 51.0634 38.3529 49.1207 38.4326C47.6665 38.4924 46.1623 38.2512 44.8168 37.6923C43.5525 37.1674 42.3916 36.3428 41.6287 35.1942C40.492 33.4829 40.5246 31.5089 41.2183 29.6329C41.3159 29.3689 41.4596 29.1031 41.604 28.8618C41.7517 28.6149 41.9187 28.3633 42.1015 28.1407C42.2263 27.9885 42.4559 27.7083 42.6826 27.8256C42.8355 27.9047 42.8359 28.0769 42.8076 28.2218C42.7756 28.387 42.7101 28.5634 42.6494 28.7201C42.044 30.2844 41.8307 32.0727 42.6102 33.6189C43.2651 34.9181 44.4676 35.7331 45.8214 36.1926C47.123 36.6345 48.5933 36.7427 49.8865 36.211C50.8225 35.8262 51.6439 35.09 51.8918 34.083C52.0568 33.4132 51.9323 32.7447 51.5997 32.146C51.1434 31.3246 50.3433 30.7016 49.5316 30.2537L49.5277 30.2516L44.5507 27.2267L44.5399 27.2181C42.6906 25.7316 41.9825 23.7356 42.5588 21.4177C42.8109 20.4042 43.3008 19.5245 44.1346 18.8757C45.1926 18.0525 46.5909 17.7692 47.9006 17.6721C48.6571 17.6159 49.4204 17.6188 50.1781 17.645C50.9737 17.6725 51.7683 17.7269 52.5622 17.7823C53.2664 17.8314 53.9706 17.8821 54.6757 17.9166L54.9104 17.9281L54.1496 22.6963L53.853 22.3528V22.3528Z" fill="#F18917"/>
<path fill-rule="evenodd" clip-rule="evenodd" d="M129.906 16.5876C125.629 34.0507 112.025 45.3557 92.5969 37.3904C100.966 10.2508 115.271 22.1824 129.906 16.5876Z" fill="#0078BF"/>
<path fill-rule="evenodd" clip-rule="evenodd" d="M127.207 19.3228C124.28 20.0007 121.319 20.1814 118.232 20.2368C114.812 20.2985 111.091 20.1793 107.762 21.0262C104.859 21.7645 102.583 23.1802 100.601 25.4205C97.9741 28.3905 96.1739 32.4695 94.8829 36.3023C101.588 38.71 108.776 39.1028 115.185 35.4322C121.212 31.9799 125.065 25.8136 127.207 19.3228V19.3228Z" fill="#FBF7F1"/>
<path fill-rule="evenodd" clip-rule="evenodd" d="M122.554 7.15942C123.334 25.1178 113.433 39.7528 92.5463 37.4993C92.9882 9.11121 110.065 16.5968 122.554 7.15942V7.15942Z" fill="#F18917"/>
<path fill-rule="evenodd" clip-rule="evenodd" d="M112.574 0C118.476 16.9863 113.189 33.8306 92.528 37.6206C84.8028 10.292 103.316 12.6007 112.574 0Z" fill="#FEFEFE"/>
<path fill-rule="evenodd" clip-rule="evenodd" d="M111.793 3.75522C109.701 5.90472 107.31 7.65452 104.746 9.36695C101.905 11.2646 98.7122 13.1729 96.3748 15.6812C94.3368 17.8682 93.1933 20.2868 92.746 23.2393C92.1531 27.1537 92.8583 31.5538 93.8576 35.4722C100.809 33.8776 107.053 30.3375 110.448 23.7841C113.637 17.6292 113.522 10.3669 111.793 3.75522V3.75522Z" fill="#0078BF"/>
</svg>
