<svg width="292" height="113" viewBox="0 0 292 113" fill="none" xmlns="http://www.w3.org/2000/svg">
<g clip-path="url(#clip0)">
<path fill-rule="evenodd" clip-rule="evenodd" d="M253.145 1.90735e-05C266.43 38.882 254.531 77.4387 208.027 86.1143C190.64 23.5587 232.308 28.8433 253.145 1.90735e-05Z" fill="#E7A545"/>
<path fill-rule="evenodd" clip-rule="evenodd" d="M275.567 16.6656C277.323 57.7728 255.038 91.2725 208.028 86.1139C209.022 21.1333 247.458 38.2678 275.567 16.6656Z" fill="#8EA7D0" fill-opacity="0.701961"/>
<path fill-rule="evenodd" clip-rule="evenodd" d="M292 38.4963C282.375 78.4694 251.755 104.346 208.028 86.1141C226.865 23.9909 259.062 51.3027 292 38.4963Z" fill="#BDBFC1" fill-opacity="0.701961"/>
<path fill-rule="evenodd" clip-rule="evenodd" d="M187.813 55.2753C187.004 54.3223 186.939 53.007 186.394 51.9333C185.898 50.9568 185.21 50.363 184.285 49.8124C181.808 48.3385 178.77 47.917 176.009 48.7459C174.939 49.0668 173.861 49.5982 173.03 50.3616C172.397 50.9434 171.861 51.7099 171.763 52.5911C171.639 53.7057 172.255 54.6537 173.036 55.3751C173.695 55.9824 174.711 56.4822 175.495 56.9177C179.358 59.0658 183.161 61.3213 186.999 63.5163C191.082 65.852 194.256 69.6497 194.86 74.4732C195.502 79.6041 193.043 84.2286 189.3 87.5296C185.964 90.4719 181.535 91.8992 177.162 92.0818C173.889 92.2184 170.503 91.6665 167.475 90.3874C164.63 89.1856 162.017 87.2982 160.299 84.6689C157.741 80.7518 157.814 76.2333 159.376 71.9391C159.596 71.335 159.919 70.7265 160.244 70.1741C160.576 69.609 160.952 69.033 161.364 68.5233C161.645 68.1751 162.161 67.5338 162.672 67.8024C163.016 67.9832 163.017 68.3774 162.953 68.7092C162.881 69.0871 162.733 69.4912 162.597 69.8497C161.234 73.4304 160.754 77.524 162.509 81.0632C163.983 84.0371 166.689 85.9026 169.736 86.9546C172.666 87.966 175.975 88.2135 178.886 86.9967C180.993 86.1158 182.841 84.4307 183.399 82.1256C183.771 80.5923 183.49 79.0622 182.742 77.6919C181.715 75.8116 179.914 74.3854 178.087 73.3604L178.078 73.3556L166.876 66.4316L166.852 66.4119C162.69 63.0091 161.096 58.44 162.393 53.1347C162.96 50.8147 164.063 48.8011 165.94 47.316C168.321 45.4319 171.468 44.7832 174.416 44.561C176.118 44.4325 177.836 44.4391 179.542 44.4989C181.333 44.5621 183.121 44.6863 184.908 44.8133C186.493 44.9257 188.078 45.0416 189.665 45.1208L190.193 45.147L188.481 56.0615L187.813 55.2754L187.813 55.2753Z" fill="#BDBFC1"/>
<path fill-rule="evenodd" clip-rule="evenodd" d="M139.153 49.3419C138.068 49.3366 136.986 49.3198 135.901 49.3651C134.331 49.4308 131.481 49.6461 130.47 51.064C129.884 51.8867 130.033 52.9551 130.326 53.8615C130.611 54.4311 130.975 54.8784 131.539 55.1819C131.897 55.3741 132.295 55.4918 132.687 55.589C133.182 55.7121 133.682 55.81 134.177 55.9358L135.065 56.1613L134.371 56.7666C133.246 57.7457 131.84 58.1747 130.381 57.841C128.098 57.3189 126.165 55.0266 126.165 52.6322C126.165 48.4872 128.726 46.1217 132.602 45.5591C133.683 45.4023 134.779 45.3112 135.868 45.2461C137.074 45.1738 138.282 45.1362 139.489 45.1135C141.081 45.084 142.673 45.0829 144.266 45.0829C145.023 45.0829 145.814 45.0015 146.568 44.9251C147.569 44.8236 148.568 44.705 149.568 44.597C150.852 44.4586 152.163 44.3222 153.454 44.2926C154.189 44.2755 155.497 44.2668 156.125 44.6928L156.803 45.1519L156.074 45.522C155.541 45.7928 154.978 46.0094 154.426 46.2368C153.625 46.5668 152.523 47.024 152.017 47.7699C151.793 48.1006 151.698 48.4628 151.698 48.8622C151.698 52.1609 151.698 55.4594 151.698 58.7583C151.698 65.1983 151.698 71.6385 151.698 78.0787C151.698 79.0528 151.725 80.04 151.827 81.0092C151.896 81.6594 152 82.3298 152.19 82.9555C152.427 83.7335 152.772 84.3713 153.439 84.847C153.79 85.0978 154.192 85.2841 154.585 85.4567C155.086 85.6767 155.586 85.8831 156.074 86.1312L157.866 87.0416H132.984L134.776 86.1312C135.286 85.8724 135.807 85.6593 136.329 85.4319C136.734 85.2556 137.15 85.0647 137.51 84.803C138.132 84.3501 138.462 83.7509 138.688 83.0197C138.867 82.4427 138.966 81.8255 139.031 81.2257C139.127 80.3408 139.153 79.4394 139.153 78.5499V49.3417L139.153 49.3419Z" fill="#BDBFC1"/>
<path fill-rule="evenodd" clip-rule="evenodd" d="M68.1895 63.295L64.3589 72.8054H71.8456C70.6069 69.644 69.4232 66.4586 68.1894 63.295H68.1895ZM73.4907 77.0561H62.6468C61.8204 79.1079 60.9938 81.1594 60.1674 83.2112C59.9995 83.6281 59.9115 84.0814 60.1215 84.4998C60.4792 85.2116 61.7184 85.7673 62.3922 86.139L64.0291 87.0419H46.4063L49.7951 86.0975C50.9306 85.7812 52.0774 85.2705 53.0574 84.6056C53.5513 84.2705 54.4041 83.6035 54.6279 83.0228C56.2981 78.6922 57.9698 74.3617 59.6398 70.031C61.2729 65.7964 62.9161 61.564 64.532 57.3227C65.0724 55.9042 65.2178 55.6046 64.6781 54.1459C64.0825 52.6367 63.429 51.0642 62.5928 49.6743C61.956 48.6158 61.1826 47.6287 60.1506 46.9411C58.3034 45.7101 55.9924 45.7324 53.883 46.0376L52.4296 46.2481L53.4867 45.2157C55.0627 43.6765 56.2109 42.8151 58.3392 42.2761C61.468 41.4835 64.5582 41.6281 67.5104 42.9911C72.4631 45.2777 75.9138 50.4762 78.3295 55.2226C79.4952 57.513 80.5122 59.8816 81.4616 62.2714C82.2889 64.3544 83.0575 66.4579 83.8638 68.5486C84.8897 71.2079 85.8365 73.8979 86.8763 76.5518C90.5651 85.9653 95.3512 94.891 106.693 94.891H107.839L107.029 95.7116C104.058 98.7215 98.7928 99.1653 94.8413 98.6888C91.5085 98.2868 87.6086 97.0703 85.0443 94.7935C84.4042 94.2255 83.7755 93.6449 83.1652 93.0441C81.2286 91.1371 79.6058 89.1121 78.1684 86.7936C76.2823 83.7515 74.7902 80.3972 73.4903 77.0563L73.4907 77.0561Z" fill="#BDBFC1"/>
<path fill-rule="evenodd" clip-rule="evenodd" d="M0.000160777 65.4814C0.000160777 59.8961 2.16274 54.9128 5.99112 50.9376C9.18325 47.6232 13.5415 45.0524 17.9876 43.9476L18.9624 43.7053L18.5284 44.6224C17.9426 45.8596 17.3508 47.0974 16.7935 48.348C16.4207 49.1854 16.0457 50.0543 15.7693 50.93L15.7607 50.9574L15.749 50.9833C14.7838 53.1248 14.2503 55.603 13.9671 57.9309C13.631 60.6943 13.6136 63.5432 13.8698 66.3144C14.189 69.7691 14.9628 73.3933 16.3989 76.5562C17.5977 79.1965 19.3966 81.7822 22.0065 83.14C23.3901 83.86 24.8803 84.1671 26.4319 84.1084C28.4154 84.0338 30.2727 83.4664 31.9354 82.3617C34.5728 80.6091 36.3249 77.7767 37.3967 74.8255C38.6171 71.4652 39.0625 67.7084 38.8995 64.1419C38.7172 60.1623 37.7515 55.9656 35.7791 52.493C35.0241 51.1638 34.0035 49.9889 32.678 49.224C31.5678 48.5833 30.3291 48.2833 29.0532 48.3503C27.0037 48.4579 25.1087 49.4907 23.7465 51.0213C22.1257 52.8423 21.3582 55.2096 21.3582 57.6425C21.3582 58.3984 21.4556 59.0835 21.617 59.8174C21.7128 60.2536 21.9104 60.8736 21.6032 61.2602C21.4238 61.4858 21.1569 61.5527 20.8836 61.5527H20.6678L20.5259 61.3879C17.9375 58.3807 17.8166 53.8175 19.3473 50.2841C20.1949 48.3281 21.5422 46.6465 23.2922 45.4478C25.3339 44.0493 27.7115 43.4439 30.1604 43.4439C30.485 43.4439 30.8095 43.4439 31.1339 43.4495C32.2514 43.4689 33.2902 43.5743 34.384 43.8195C36.0104 44.184 37.6218 44.7922 39.156 45.4406C39.5943 45.6257 40.0289 45.8528 40.4452 46.0837C41.0854 46.4387 41.71 46.8271 42.317 47.2375C43.9742 48.3581 45.5321 49.6676 46.9111 51.1244C50.6589 55.0832 52.8994 59.9346 52.8994 65.4814C52.8994 71.133 50.8133 76.087 46.8179 80.0177C45.4892 81.3251 44.0034 82.4642 42.4229 83.441C37.7812 86.3094 31.8926 88.0091 26.4497 88.0091C21.6893 88.0091 16.866 86.8431 12.6302 84.6392C8.56116 82.5218 4.95162 79.3948 2.63543 75.3631C0.895036 72.334 -3.05176e-05 68.9875 -3.05176e-05 65.4814H0.000160777Z" fill="#BDBFC1"/>
<path fill-rule="evenodd" clip-rule="evenodd" d="M121.21 55.2753C120.401 54.3223 120.336 53.007 119.791 51.9333C119.295 50.9568 118.607 50.363 117.682 49.8124C115.205 48.3385 112.167 47.917 109.405 48.7459C108.336 49.0668 107.258 49.5982 106.427 50.3616C105.793 50.9434 105.258 51.7099 105.16 52.5911C105.036 53.7057 105.651 54.6537 106.433 55.3751C107.092 55.9824 108.108 56.4822 108.891 56.9177C112.755 59.0658 116.558 61.3213 120.395 63.5163C124.479 65.852 127.653 69.6497 128.257 74.4732C128.899 79.6041 126.439 84.2286 122.697 87.5296C119.361 90.4719 114.932 91.8992 110.559 92.0818C107.286 92.2184 103.9 91.6665 100.872 90.3874C98.0265 89.1856 95.4134 87.2982 93.6963 84.6689C91.1379 80.7518 91.211 76.2333 92.7726 71.9391C92.9922 71.335 93.3154 70.7265 93.6405 70.1741C93.9731 69.609 94.349 69.033 94.7603 68.5233C95.0413 68.1751 95.5578 67.5338 96.0684 67.8024C96.4123 67.9832 96.4133 68.3774 96.3498 68.7092C96.2775 69.0871 96.1302 69.4912 95.9936 69.8497C94.6308 73.4304 94.1508 77.524 95.9052 81.0632C97.3795 84.0371 100.086 85.9026 103.133 86.9546C106.063 87.966 109.372 88.2135 112.282 86.9967C114.389 86.1158 116.238 84.4307 116.796 82.1256C117.167 80.5923 116.887 79.0622 116.139 77.6919C115.112 75.8116 113.311 74.3854 111.484 73.3604L111.475 73.3556L100.273 66.4316L100.249 66.4119C96.0863 63.0091 94.4925 58.44 95.7897 53.1347C96.3568 50.8147 97.4595 48.8011 99.3364 47.316C101.718 45.4319 104.865 44.7832 107.813 44.561C109.515 44.4325 111.233 44.4391 112.939 44.4989C114.729 44.5621 116.518 44.6863 118.305 44.8133C119.89 44.9257 121.475 45.0416 123.062 45.1208L123.59 45.147L121.877 56.0615L121.21 55.2754L121.21 55.2753Z" fill="#BDBFC1"/>
<path d="M108.482 112.806L106.337 109.668H106.21H103.97V112.806H101.396V101.539H106.21C107.195 101.539 108.051 101.705 108.776 102.038C109.502 102.371 110.06 102.843 110.452 103.455C110.844 104.066 111.04 104.79 111.04 105.627C111.04 106.464 110.842 107.186 110.444 107.792C110.047 108.399 109.483 108.863 108.752 109.185L111.247 112.806H108.482ZM108.434 105.627C108.434 104.994 108.233 104.509 107.831 104.171C107.428 103.833 106.84 103.664 106.067 103.664H103.97V107.591H106.067C106.84 107.591 107.428 107.419 107.831 107.076C108.233 106.733 108.434 106.25 108.434 105.627ZM121.685 110.714V112.806H113.074V101.539H121.479V103.631H115.632V106.078H120.795V108.106H115.632V110.714H121.685H121.685ZM127.389 112.999C126.51 112.999 125.66 112.879 124.839 112.637C124.018 112.396 123.359 112.082 122.861 111.696L123.735 109.732C124.212 110.086 124.778 110.37 125.435 110.585C126.092 110.799 126.748 110.907 127.405 110.907C128.136 110.907 128.676 110.797 129.026 110.577C129.375 110.357 129.55 110.064 129.55 109.699C129.55 109.431 129.447 109.208 129.24 109.032C129.033 108.854 128.769 108.712 128.445 108.605C128.122 108.498 127.685 108.38 127.135 108.251C126.287 108.047 125.594 107.843 125.053 107.639C124.513 107.435 124.05 107.108 123.663 106.657C123.277 106.207 123.083 105.606 123.083 104.854C123.083 104.2 123.258 103.607 123.607 103.076C123.957 102.545 124.484 102.123 125.188 101.812C125.893 101.501 126.753 101.345 127.77 101.345C128.48 101.345 129.173 101.431 129.852 101.603C130.529 101.775 131.123 102.021 131.631 102.343L130.837 104.323C129.809 103.733 128.782 103.438 127.754 103.438C127.034 103.438 126.502 103.556 126.157 103.792C125.813 104.028 125.641 104.339 125.641 104.726C125.641 105.112 125.84 105.399 126.237 105.587C126.634 105.775 127.241 105.96 128.056 106.142C128.903 106.346 129.597 106.55 130.138 106.754C130.678 106.958 131.141 107.279 131.528 107.72C131.914 108.159 132.108 108.755 132.108 109.506C132.108 110.15 131.93 110.738 131.575 111.269C131.22 111.8 130.688 112.221 129.979 112.532C129.269 112.843 128.406 112.999 127.389 112.999L127.389 112.999ZM133.871 101.539H136.445V112.806H133.871V101.539ZM139.083 101.539H144.135C145.343 101.539 146.41 101.772 147.337 102.239C148.263 102.706 148.984 103.363 149.497 104.211C150.011 105.058 150.268 106.046 150.268 107.173C150.268 108.299 150.011 109.287 149.497 110.134C148.984 110.982 148.263 111.639 147.337 112.106C146.41 112.573 145.343 112.806 144.135 112.806H139.083V101.539V101.539ZM144.008 110.666C145.12 110.666 146.007 110.352 146.669 109.724C147.331 109.096 147.662 108.246 147.662 107.172C147.662 106.099 147.331 105.249 146.669 104.621C146.007 103.993 145.12 103.679 144.008 103.679H141.657V110.665H144.008V110.666ZM160.818 110.714V112.806H152.206V101.539H160.611V103.631H154.764V106.078H159.928V108.106H154.764V110.714H160.818H160.818ZM173.067 101.539V112.806H170.954L165.409 105.965V112.806H162.867V101.539H164.996L170.525 108.38V101.539H173.067ZM181.027 113C179.894 113 178.869 112.75 177.953 112.251C177.037 111.752 176.316 111.06 175.792 110.175C175.268 109.289 175.006 108.289 175.006 107.173C175.006 106.057 175.268 105.056 175.792 104.17C176.316 103.285 177.037 102.593 177.953 102.094C178.869 101.595 179.899 101.346 181.043 101.346C182.007 101.346 182.878 101.517 183.657 101.861C184.435 102.204 185.089 102.698 185.619 103.341L183.966 104.887C183.215 104.007 182.283 103.567 181.17 103.567C180.482 103.567 179.867 103.72 179.327 104.025C178.787 104.331 178.366 104.758 178.064 105.305C177.762 105.852 177.611 106.475 177.611 107.172C177.611 107.87 177.762 108.492 178.064 109.039C178.366 109.587 178.787 110.013 179.327 110.319C179.867 110.625 180.482 110.778 181.17 110.778C182.282 110.778 183.215 110.332 183.966 109.442L185.619 110.987C185.089 111.641 184.433 112.14 183.649 112.484C182.865 112.827 181.991 112.999 181.027 112.999V113ZM195.962 110.714V112.807H187.351V101.539H195.756V103.632H189.909V106.078H195.072V108.107H189.909V110.714H195.962H195.962Z" fill="#E7A545"/>
<path d="M4.3418 19.0811H5.41406C7.08984 19.0811 8.38477 19.4209 9.29883 20.1006C10.2129 20.7803 10.6699 21.7412 10.6699 22.9834C10.6699 25.6611 8.90039 27 5.36133 27H1.61719V14.1504H9.73828V16.4004H4.3418V19.0811ZM4.3418 24.7676H5.25586C6.17578 24.7676 6.84961 24.6211 7.27734 24.3281C7.70508 24.0293 7.91895 23.5811 7.91895 22.9834C7.91895 22.3916 7.70215 21.9668 7.26855 21.709C6.83496 21.4453 6.09082 21.3135 5.03613 21.3135H4.3418V24.7676ZM13.1133 14.1504H15.5654V20.3555L15.5303 22.0166L15.4424 23.9062H15.4951L21.4277 14.1504H24.6885V27H22.2627V20.8301C22.2627 20.0039 22.3154 18.7793 22.4209 17.1562H22.3506L16.3916 27H13.1133V14.1504ZM37.3887 24.7324H41.3789V14.1504H44.0947V27H27.9316V14.1504H30.6562V24.7324H34.6465V14.1504H37.3887V24.7324ZM57.8145 27H54.7207L50.0625 20.4873V27H47.3379V14.1504H50.0625V20.373L54.668 14.1504H57.5684L52.8838 20.3203L57.8145 27ZM66.832 27H59.4316V14.1504H66.832V16.3828H62.1562V19.2041H66.5068V21.4365H62.1562V24.75H66.832V27ZM79.998 27H76.9043L72.2461 20.4873V27H69.5215V14.1504H72.2461V20.373L76.8516 14.1504H79.752L75.0674 20.3203L79.998 27Z" fill="#E7A545"/>
</g>
<defs>
<clipPath id="clip0">
<rect width="292" height="113" fill="white"/>
</clipPath>
</defs>
</svg>
