<svg width="130" height="47" viewBox="0 0 130 47" fill="none" xmlns="http://www.w3.org/2000/svg">
<g clip-path="url(#clip0)">
<path fill-rule="evenodd" clip-rule="evenodd" d="M83.4446 19.1483C83.0851 18.7321 83.0565 18.1574 82.8143 17.6883C82.5939 17.2617 82.2881 17.0023 81.8771 16.7618C80.7766 16.1179 79.427 15.9337 78.1999 16.2959C77.7247 16.4361 77.2459 16.6683 76.8766 17.0018C76.595 17.2559 76.3572 17.5908 76.3137 17.9757C76.2586 18.4627 76.5318 18.8768 76.8793 19.1919C77.1719 19.4572 77.6235 19.6757 77.9716 19.866C79.6882 20.8044 81.3776 21.7897 83.0826 22.7487C84.897 23.7691 86.3072 25.4282 86.5753 27.5354C86.8605 29.7769 85.7679 31.7973 84.1051 33.2394C82.6232 34.5247 80.655 35.1483 78.7123 35.2281C77.2582 35.2878 75.7539 35.0466 74.4084 34.4878C73.1442 33.9629 71.9832 33.1382 71.2202 31.9896C70.0836 30.2783 70.1161 28.3043 70.81 26.4283C70.9076 26.1643 71.0512 25.8986 71.1956 25.6572C71.3433 25.4103 71.5103 25.1587 71.693 24.9361C71.818 24.7839 72.0475 24.5038 72.2743 24.6211C72.427 24.7001 72.4274 24.8723 72.3993 25.0172C72.3672 25.1824 72.3017 25.3588 72.2411 25.5155C71.6357 27.0798 71.4223 28.8682 72.2018 30.4143C72.8568 31.7135 74.0593 32.5285 75.4129 32.988C76.7147 33.4299 78.1848 33.5381 79.4781 33.0064C80.4142 32.6216 81.2354 31.8855 81.4835 30.8784C81.6484 30.2086 81.5239 29.5401 81.1913 28.9414C80.735 28.12 79.935 27.497 79.1232 27.0492L79.1194 27.047L74.1422 24.0222L74.1315 24.0135C72.2823 22.527 71.5741 20.531 72.1504 18.2132C72.4024 17.1996 72.8923 16.3199 73.7263 15.6712C74.7843 14.848 76.1825 14.5646 77.4922 14.4675C78.2486 14.4114 79.012 14.4142 79.7697 14.4404C80.5652 14.468 81.3599 14.5223 82.1539 14.5778C82.858 14.6269 83.5623 14.6775 84.2673 14.7121L84.5021 14.7235L83.7412 19.4918L83.4446 19.1483Z" fill="#F18917"/>
<path fill-rule="evenodd" clip-rule="evenodd" d="M61.8248 16.5561C61.3431 16.5538 60.8623 16.5464 60.3803 16.5662C59.6826 16.5949 58.4162 16.689 57.9671 17.3085C57.7066 17.6679 57.7731 18.1346 57.9032 18.5306C58.0299 18.7794 58.1914 18.9749 58.4422 19.1075C58.601 19.1914 58.7781 19.2428 58.952 19.2853C59.1718 19.3391 59.3941 19.3819 59.6138 19.4368L60.0087 19.5354L59.7 19.7997C59.2004 20.2275 58.5758 20.415 57.9273 20.2691C56.9132 20.041 56.0545 19.0396 56.0545 17.9935C56.0545 16.1827 57.1923 15.1493 58.9144 14.9035C59.3946 14.835 59.8815 14.7952 60.3656 14.7667C60.9011 14.7352 61.4379 14.7187 61.9742 14.7089C62.6815 14.6959 63.3889 14.6955 64.0964 14.6955C64.4328 14.6955 64.7845 14.6599 65.1192 14.6265C65.5639 14.5822 66.0079 14.5304 66.4523 14.4833C67.0229 14.4228 67.6053 14.3632 68.1789 14.3503C68.5053 14.3428 69.0863 14.339 69.3657 14.525L69.6668 14.7257L69.343 14.8874C69.106 15.0057 68.856 15.1003 68.6106 15.1996C68.2545 15.3438 67.7651 15.5435 67.5403 15.8695C67.4406 16.0139 67.3985 16.1721 67.3985 16.3466C67.3985 17.7877 67.3985 19.2287 67.3985 20.6698C67.3985 23.4833 67.3985 26.2968 67.3985 29.1104C67.3985 29.5359 67.4105 29.9671 67.4559 30.3906C67.4864 30.6746 67.5326 30.9675 67.6173 31.2408C67.7226 31.5807 67.8759 31.8593 68.172 32.0671C68.3282 32.1768 68.5067 32.2581 68.6815 32.3335C68.9038 32.4296 69.1259 32.5198 69.343 32.6282L70.1392 33.0259H59.084L59.8803 32.6282C60.1066 32.5152 60.3382 32.4221 60.5703 32.3228C60.7503 32.2457 60.9351 32.1623 61.0948 32.048C61.3713 31.8502 61.518 31.5884 61.6185 31.2689C61.6978 31.0168 61.7418 30.7472 61.7706 30.4852C61.8132 30.0986 61.8248 29.7049 61.8248 29.3162V16.5561Z" fill="#F18917"/>
<path fill-rule="evenodd" clip-rule="evenodd" d="M30.2963 22.6519L28.5944 26.8066H31.9207C31.3704 25.4255 30.8444 24.034 30.2963 22.6519ZM32.6516 28.6637H27.8336C27.4665 29.56 27.0993 30.4563 26.7321 31.3526C26.6576 31.5348 26.6184 31.7329 26.7118 31.9156C26.8706 32.2266 27.4213 32.4693 27.7206 32.6317L28.4478 33.0261H20.6181L22.1237 32.6136C22.6283 32.4754 23.1378 32.2523 23.5732 31.9618C23.7926 31.8154 24.1715 31.5241 24.271 31.2703C25.0131 29.3784 25.7558 27.4866 26.4978 25.5946C27.2233 23.7446 27.9535 21.8956 28.6713 20.0427C28.9115 19.423 28.9761 19.2921 28.7364 18.6548C28.4716 17.9956 28.1813 17.3085 27.8099 16.7014C27.5269 16.239 27.1832 15.8077 26.7248 15.5072C25.9041 14.9696 24.8773 14.9793 23.9401 15.1126L23.2944 15.2045L23.764 14.7535C24.4643 14.0811 24.9744 13.7048 25.92 13.4693C27.3101 13.123 28.6831 13.1861 29.9948 13.7817C32.1952 14.7807 33.7283 17.0517 34.8016 19.1252C35.3196 20.1258 35.7713 21.1605 36.1931 22.2046C36.5608 23.1145 36.9023 24.0335 37.2606 24.9469C37.7164 26.1087 38.137 27.2838 38.5991 28.4433C40.2378 32.5557 42.3644 36.4552 47.4037 36.4552H47.9127L47.5528 36.8136C46.2327 38.1286 43.8934 38.3225 42.1377 38.1143C40.6571 37.9386 38.9244 37.4072 37.785 36.4125C37.5007 36.1643 37.2213 35.9108 36.9502 35.6483C36.0898 34.8152 35.3687 33.9304 34.73 32.9175C33.892 31.5885 33.2291 30.1232 32.6516 28.6637Z" fill="#F18917"/>
<path fill-rule="evenodd" clip-rule="evenodd" d="M0 23.6074C0 21.1673 0.960856 18.9903 2.66178 17.2537C4.08002 15.8056 6.01638 14.6825 7.99177 14.1999L8.42492 14.094L8.23205 14.4946C7.97183 15.0351 7.70886 15.5759 7.46131 16.1222C7.29558 16.488 7.12908 16.8676 7.0063 17.2502L7.00247 17.2622L6.99725 17.2735C6.56832 18.209 6.33142 19.2916 6.20557 20.3086C6.05626 21.5159 6.04851 22.7604 6.16232 23.9711C6.30412 25.4804 6.64792 27.0636 7.28591 28.4454C7.81853 29.5989 8.61788 30.7286 9.77736 31.3218C10.3921 31.6362 11.0543 31.7705 11.7436 31.7449C12.6249 31.7122 13.4501 31.4643 14.1888 30.9817C15.3605 30.2161 16.139 28.9788 16.6152 27.6895C17.1575 26.2214 17.3554 24.5801 17.2828 23.022C17.2019 21.2835 16.7728 19.4501 15.8965 17.9331C15.561 17.3524 15.1076 16.8391 14.5187 16.505C14.0254 16.2251 13.4752 16.0941 12.9082 16.1233C11.9976 16.1703 11.1557 16.6215 10.5504 17.2901C9.83035 18.0856 9.48931 19.1199 9.48931 20.1827C9.48931 20.5129 9.53257 20.8122 9.60427 21.1329C9.64691 21.3234 9.73464 21.5942 9.59814 21.7632C9.51853 21.8619 9.39989 21.891 9.27849 21.891H9.18263L9.11959 21.819C7.96953 20.5052 7.91585 18.5116 8.59594 16.9681C8.97249 16.1135 9.57114 15.3788 10.3486 14.8552C11.2556 14.2443 12.3121 13.9798 13.4001 13.9798C13.5443 13.9798 13.6884 13.9797 13.8326 13.9822C14.3292 13.9907 14.7906 14.0368 15.2766 14.1439C15.9992 14.3032 16.7151 14.5689 17.3968 14.8521C17.5915 14.933 17.7846 15.0322 17.9695 15.133C18.254 15.2881 18.5315 15.4577 18.8012 15.6371C19.5375 16.1267 20.2296 16.6987 20.8424 17.3352C22.5075 19.0647 23.5029 21.1841 23.5029 23.6074C23.5029 26.0764 22.5761 28.2406 20.801 29.9578C20.2107 30.5289 19.5505 31.0267 18.8483 31.4533C16.786 32.7065 14.1697 33.449 11.7515 33.449C9.63648 33.449 7.49352 32.9396 5.6116 31.9767C3.80378 31.0518 2.20002 29.6856 1.17091 27.9243C0.397717 26.601 0 25.1391 0 23.6074H0Z" fill="#F18917"/>
<path fill-rule="evenodd" clip-rule="evenodd" d="M53.853 19.1483C53.4935 18.7321 53.4649 18.1574 53.2226 17.6883C53.0024 17.2617 52.6965 17.0023 52.2855 16.7618C51.1849 16.1179 49.8353 15.9337 48.6082 16.2959C48.133 16.4361 47.6543 16.6683 47.2849 17.0018C47.0034 17.2559 46.7656 17.5908 46.7221 17.9757C46.667 18.4627 46.9403 18.8768 47.2877 19.1919C47.5802 19.4572 48.0319 19.6757 48.3799 19.866C50.0965 20.8044 51.786 21.7897 53.491 22.7487C55.3053 23.7691 56.7155 25.4282 56.9837 27.5354C57.2689 29.7769 56.1762 31.7973 54.5135 33.2394C53.0315 34.5247 51.0634 35.1483 49.1207 35.2281C47.6665 35.2878 46.1623 35.0466 44.8168 34.4878C43.5525 33.9629 42.3916 33.1382 41.6287 31.9896C40.492 30.2783 40.5246 28.3043 41.2183 26.4283C41.3159 26.1643 41.4596 25.8986 41.604 25.6572C41.7517 25.4103 41.9187 25.1587 42.1015 24.9361C42.2263 24.7839 42.4559 24.5038 42.6826 24.6211C42.8355 24.7001 42.8359 24.8723 42.8076 25.0172C42.7756 25.1824 42.7101 25.3588 42.6494 25.5155C42.044 27.0798 41.8307 28.8682 42.6102 30.4143C43.2651 31.7135 44.4676 32.5285 45.8214 32.988C47.123 33.4299 48.5933 33.5381 49.8865 33.0064C50.8225 32.6216 51.6439 31.8855 51.8918 30.8784C52.0568 30.2086 51.9323 29.5401 51.5997 28.9414C51.1434 28.12 50.3433 27.497 49.5316 27.0492L49.5277 27.047L44.5507 24.0222L44.5399 24.0135C42.6906 22.527 41.9825 20.531 42.5588 18.2132C42.8109 17.1996 43.3008 16.3199 44.1346 15.6712C45.1926 14.848 46.5909 14.5646 47.9006 14.4675C48.6571 14.4114 49.4204 14.4142 50.1781 14.4404C50.9737 14.468 51.7683 14.5223 52.5622 14.5778C53.2664 14.6269 53.9706 14.6775 54.6757 14.7121L54.9104 14.7235L54.1496 19.4918L53.853 19.1483Z" fill="#F18917"/>
<path fill-rule="evenodd" clip-rule="evenodd" d="M129.906 13.3831C125.629 30.8462 112.025 42.1511 92.5969 34.1859C100.966 7.0462 115.271 18.9779 129.906 13.3831Z" fill="#0078BF"/>
<path fill-rule="evenodd" clip-rule="evenodd" d="M127.207 16.1183C124.28 16.7961 121.319 16.9768 118.232 17.0323C114.812 17.0939 111.091 16.9747 107.762 17.8216C104.859 18.56 102.583 19.9757 100.601 22.2159C97.9741 25.186 96.1739 29.2649 94.8829 33.0977C101.588 35.5054 108.776 35.8983 115.185 32.2277C121.212 28.7753 125.065 22.609 127.207 16.1183Z" fill="#FBF7F1"/>
<path fill-rule="evenodd" clip-rule="evenodd" d="M122.554 3.95486C123.334 21.9132 113.433 36.5483 92.5463 34.2947C92.9882 5.90665 110.065 13.3922 122.554 3.95486Z" fill="#F18917"/>
<path fill-rule="evenodd" clip-rule="evenodd" d="M112.574 -3.20456C118.476 13.7817 113.189 30.626 92.528 34.4161C84.8028 7.08747 103.316 9.39611 112.574 -3.20456Z" fill="#FEFEFE"/>
<path fill-rule="evenodd" clip-rule="evenodd" d="M111.793 0.550659C109.701 2.70016 107.31 4.44996 104.746 6.16239C101.905 8.06002 98.7122 9.96833 96.3748 12.4767C94.3368 14.6637 93.1933 17.0823 92.746 20.0347C92.1531 23.9491 92.8583 28.3493 93.8576 32.2677C100.809 30.673 107.053 27.133 110.448 20.5796C113.637 14.4246 113.522 7.16235 111.793 0.550659Z" fill="#0078BF"/>
<path d="M53.4339 40.8828H54.4647V42.731L55.9167 40.8828H57.1482L55.2744 43.268L57.3301 46.2266H56.1185L54.4647 43.8462V46.2266H53.4339V40.8828ZM59.6995 40.8828H60.7281L62.7926 46.2266H61.7306L61.3121 45.1252H59.1131L58.6849 46.2266H57.6226L59.6995 40.8828ZM60.2152 42.3031L59.4878 44.1426H60.9386L60.2152 42.3031ZM63.5783 40.8828H64.6632C65.2496 40.8828 65.6715 40.9359 65.9306 41.044C66.1896 41.152 66.3953 41.3269 66.5447 41.5675C66.694 41.8081 66.7687 42.097 66.7687 42.4345C66.7687 42.8078 66.6703 43.118 66.4736 43.3649C66.2782 43.6115 66.0116 43.7841 65.6743 43.881C65.476 43.9368 65.1162 43.9641 64.5946 43.9641V46.2266H63.5783V40.8828ZM64.5946 42.974H64.922C65.1797 42.974 65.358 42.9554 65.4586 42.9194C65.5595 42.8822 65.6381 42.8228 65.6965 42.7384C65.7537 42.6542 65.7823 42.5525 65.7823 42.4322C65.7823 42.2248 65.7017 42.0736 65.5396 41.9791C65.4227 41.9086 65.2035 41.8726 64.8846 41.8726H64.5946V42.974ZM69.4097 40.8828H70.4382L72.5028 46.2266H71.4409L71.0222 45.1252H68.8234L68.3951 46.2266H67.3328L69.4097 40.8828ZM69.9253 42.3031L69.198 44.1426H70.6488L69.9253 42.3031ZM73.3259 43.7927H75.1791V44.7156H73.3259V43.7927ZM78.9631 40.7487C79.7214 40.7487 80.3741 41.023 80.9195 41.5699C81.4662 42.1168 81.7387 42.7844 81.7387 43.5707C81.7387 44.3511 81.4698 45.0109 80.9307 45.5506C80.3927 46.0901 79.7389 46.3607 78.9706 46.3607C78.165 46.3607 77.4964 46.0826 76.9644 45.5281C76.4317 44.9737 76.1651 44.3151 76.1651 43.5521C76.1651 43.0424 76.2898 42.5723 76.5374 42.1429C76.7853 41.7151 77.1265 41.3751 77.5599 41.1246C77.9945 40.8741 78.4625 40.7487 78.9631 40.7487ZM78.9483 41.746C78.4538 41.746 78.0379 41.9185 77.7017 42.262C77.3644 42.6056 77.1961 43.0424 77.1961 43.5732C77.1961 44.1636 77.4078 44.6313 77.8324 44.9749C78.1625 45.244 78.5399 45.3781 78.967 45.3781C79.4488 45.3781 79.8597 45.2032 80.1985 44.8546C80.5382 44.5059 80.7078 44.0768 80.7078 43.5657C80.7078 43.0571 80.537 42.6269 80.1946 42.2743C79.8536 41.9221 79.4377 41.746 78.9483 41.746ZM86.6163 40.8828V46.2266H85.6001V42.881L83.5792 46.2266H82.7013V40.8828H83.7174V44.3373L85.7697 40.8828H86.6163ZM83.1946 39.4464H84.0014C84.065 39.5457 84.152 39.62 84.2653 39.6695C84.3773 39.719 84.5156 39.7439 84.6776 39.7439C84.842 39.7439 84.9914 39.7154 85.1246 39.6572C85.2119 39.6189 85.2878 39.548 85.3537 39.4464H86.1606C86.1145 39.7538 85.9663 40.0008 85.7172 40.1868C85.4682 40.3728 85.121 40.4658 84.6737 40.4658C84.3725 40.4658 84.121 40.4238 83.9181 40.3407C83.7151 40.2576 83.5518 40.1385 83.4274 39.9833C83.3039 39.8283 83.2256 39.6497 83.1946 39.4464Z" fill="#0078BF"/>
</g>
<defs>
<clipPath id="clip0">
<rect width="130" height="47" fill="white"/>
</clipPath>
</defs>
</svg>
