<svg width="123" height="47" viewBox="0 0 123 47" fill="none" xmlns="http://www.w3.org/2000/svg">
<g clip-path="url(#clip0)">
<path fill-rule="evenodd" clip-rule="evenodd" d="M106.633 3.05176e-05C112.229 16.1722 107.217 32.2091 87.628 35.8175C80.3038 9.79877 97.8556 11.9968 106.633 3.05176e-05Z" fill="#E7A545"/>
<path fill-rule="evenodd" clip-rule="evenodd" d="M116.078 6.93179C116.817 24.0295 107.43 37.963 87.628 35.8174C88.0468 8.79004 104.238 15.9168 116.078 6.93179Z" fill="#8EA7D0" fill-opacity="0.701961"/>
<path fill-rule="evenodd" clip-rule="evenodd" d="M123 16.0118C118.945 32.6377 106.047 43.4008 87.628 35.8174C95.563 9.97854 109.125 21.3383 123 16.0118Z" fill="#BDBFC1" fill-opacity="0.701961"/>
<path fill-rule="evenodd" clip-rule="evenodd" d="M79.113 22.9907C78.7722 22.5943 78.745 22.0473 78.5154 21.6007C78.3065 21.1945 78.0165 20.9475 77.6269 20.7185C76.5835 20.1055 75.3039 19.9302 74.1405 20.2749C73.69 20.4084 73.2361 20.6294 72.886 20.947C72.619 21.1889 72.3936 21.5077 72.3523 21.8743C72.3001 22.3378 72.5593 22.7322 72.8886 23.0322C73.1659 23.2848 73.5941 23.4927 73.9241 23.6738C75.5516 24.5673 77.1534 25.5054 78.7699 26.4184C80.49 27.3898 81.827 28.9694 82.0813 30.9757C82.3517 33.1098 81.3158 35.0332 79.7394 36.4062C78.3343 37.63 76.4684 38.2237 74.6264 38.2996C73.2479 38.3564 71.8216 38.1269 70.546 37.5949C69.3474 37.095 68.2467 36.31 67.5234 35.2164C66.4458 33.5871 66.4766 31.7078 67.1343 29.9216C67.2268 29.6704 67.363 29.4173 67.4999 29.1876C67.64 28.9525 67.7984 28.7129 67.9716 28.5009C68.09 28.3561 68.3076 28.0894 68.5226 28.2011C68.6675 28.2763 68.6679 28.4402 68.6412 28.5782C68.6107 28.7354 68.5487 28.9035 68.4911 29.0526C67.9171 30.5419 67.7149 32.2446 68.4539 33.7167C69.0749 34.9536 70.215 35.7295 71.4983 36.167C72.7325 36.5877 74.1264 36.6907 75.3525 36.1845C76.24 35.8182 77.0187 35.1173 77.2538 34.1585C77.4101 33.5208 77.2921 32.8844 76.9769 32.3144C76.5442 31.5324 75.7857 30.9392 75.0161 30.5128L75.0124 30.5108L70.2937 27.6309L70.2834 27.6227C68.5302 26.2074 67.8588 24.307 68.4052 22.1004C68.6441 21.1354 69.1086 20.2979 69.8992 19.6802C70.9024 18.8965 72.2279 18.6267 73.4696 18.5343C74.1868 18.4808 74.9105 18.4836 75.629 18.5085C76.3832 18.5348 77.1366 18.5864 77.8893 18.6392C78.5569 18.686 79.2246 18.7342 79.893 18.7672L80.1156 18.778L79.3942 23.3177L79.1131 22.9908L79.113 22.9907Z" fill="#BDBFC1"/>
<path fill-rule="evenodd" clip-rule="evenodd" d="M58.6156 20.523C58.1589 20.5208 57.7031 20.5138 57.2461 20.5326C56.5846 20.56 55.3839 20.6495 54.9582 21.2392C54.7112 21.5814 54.7743 22.0258 54.8976 22.4028C55.0177 22.6397 55.1708 22.8258 55.4086 22.952C55.5592 23.032 55.7271 23.0809 55.892 23.1213C56.1005 23.1725 56.3111 23.2132 56.5195 23.2656L56.8939 23.3594L56.6013 23.6111C56.1275 24.0183 55.5354 24.1968 54.9205 24.058C53.9591 23.8409 53.145 22.8874 53.145 21.8915C53.145 20.1675 54.2237 19.1836 55.8565 18.9496C56.3117 18.8844 56.7734 18.8465 57.2322 18.8194C57.74 18.7893 58.2489 18.7737 58.7574 18.7643C59.4281 18.752 60.0987 18.7515 60.7695 18.7515C61.0883 18.7515 61.4218 18.7177 61.7391 18.6859C62.1608 18.6437 62.5817 18.5943 63.0031 18.5494C63.544 18.4919 64.0962 18.4351 64.64 18.4228C64.9494 18.4157 65.5003 18.4121 65.7652 18.5893L66.0507 18.7802L65.7436 18.9342C65.519 19.0468 65.282 19.1369 65.0492 19.2315C64.7117 19.3687 64.2477 19.5589 64.0346 19.8692C63.9401 20.0067 63.9 20.1573 63.9 20.3235C63.9 21.6955 63.9 23.0674 63.9 24.4395C63.9 27.1181 63.9 29.7968 63.9 32.4755C63.9 32.8806 63.9115 33.2912 63.9545 33.6943C63.9834 33.9648 64.0272 34.2436 64.1075 34.5039C64.2073 34.8274 64.3527 35.0927 64.6333 35.2906C64.7814 35.3949 64.9507 35.4724 65.1163 35.5442C65.3272 35.6357 65.5378 35.7215 65.7436 35.8247L66.4985 36.2034H56.0171L56.7722 35.8247C56.9867 35.7171 57.2062 35.6284 57.4263 35.5339C57.597 35.4605 57.7722 35.3811 57.9236 35.2723C58.1858 35.0839 58.3248 34.8347 58.4201 34.5306C58.4953 34.2906 58.5369 34.0338 58.5643 33.7844C58.6047 33.4163 58.6157 33.0414 58.6157 32.6714V20.5229L58.6156 20.523Z" fill="#BDBFC1"/>
<path fill-rule="evenodd" clip-rule="evenodd" d="M28.7237 26.3263L27.1101 30.282H30.2637C29.742 28.967 29.2433 27.6421 28.7236 26.3263H28.7237ZM30.9567 32.0499H26.3889C26.0408 32.9033 25.6926 33.7566 25.3445 34.61C25.2737 34.7834 25.2367 34.972 25.3251 35.146C25.4758 35.4421 25.9978 35.6732 26.2816 35.8278L26.9711 36.2033H19.5478L20.9753 35.8105C21.4536 35.679 21.9367 35.4666 22.3495 35.19C22.5576 35.0506 22.9168 34.7732 23.0111 34.5317C23.7146 32.7304 24.4188 30.9292 25.1222 29.128C25.8102 27.3667 26.5023 25.6063 27.183 23.8422C27.4106 23.2523 27.4719 23.1276 27.2445 22.5209C26.9936 21.8932 26.7184 21.2392 26.3662 20.661C26.0979 20.2208 25.7721 19.8102 25.3374 19.5242C24.5593 19.0122 23.5858 19.0215 22.6973 19.1484L22.085 19.236L22.5303 18.8066C23.1942 18.1664 23.6779 17.8081 24.5744 17.5839C25.8923 17.2542 27.194 17.3144 28.4376 17.8813C30.5238 18.8324 31.9774 20.9946 32.9949 22.9688C33.486 23.9214 33.9144 24.9066 34.3143 25.9005C34.6628 26.7669 34.9865 27.6418 35.3262 28.5114C35.7583 29.6175 36.1571 30.7363 36.5952 31.8402C38.149 35.7555 40.1651 39.468 44.9428 39.468H45.4253L45.0842 39.8093C43.8326 41.0612 41.6148 41.2458 39.9502 41.0476C38.5464 40.8804 36.9036 40.3744 35.8234 39.4275C35.5538 39.1912 35.289 38.9497 35.0319 38.6998C34.2161 37.9066 33.5326 37.0644 32.9271 36.1001C32.1326 34.8348 31.5041 33.4396 30.9565 32.05L30.9567 32.0499Z" fill="#BDBFC1"/>
<path fill-rule="evenodd" clip-rule="evenodd" d="M5.00619e-05 27.236C5.00619e-05 24.9129 0.911001 22.8402 2.52364 21.1868C3.86827 19.8082 5.70411 18.739 7.57694 18.2794L7.98757 18.1787L7.80474 18.5601C7.558 19.0747 7.30869 19.5895 7.07396 20.1097C6.91691 20.458 6.75898 20.8194 6.64254 21.1836L6.63891 21.195L6.634 21.2058C6.22739 22.0965 6.00266 23.1272 5.8834 24.0955C5.74182 25.2449 5.73449 26.4298 5.84239 27.5824C5.97687 29.0193 6.30282 30.5268 6.90773 31.8423C7.41272 32.9405 8.17049 34.016 9.26983 34.5807C9.85267 34.8801 10.4804 35.0079 11.134 34.9835C11.9695 34.9525 12.7518 34.7164 13.4522 34.257C14.5632 33.528 15.3012 32.35 15.7527 31.1225C16.2668 29.7248 16.4544 28.1622 16.3857 26.6788C16.3089 25.0236 15.9022 23.2781 15.0713 21.8337C14.7533 21.2808 14.3234 20.7922 13.765 20.474C13.2974 20.2075 12.7756 20.0828 12.2381 20.1107C11.3748 20.1554 10.5766 20.585 10.0028 21.2216C9.32003 21.979 8.99675 22.9636 8.99675 23.9756C8.99675 24.2899 9.03777 24.5749 9.10577 24.8801C9.14614 25.0616 9.22938 25.3194 9.09997 25.4803C9.02439 25.5741 8.91198 25.6019 8.79683 25.6019H8.70594L8.64615 25.5334C7.55583 24.2826 7.5049 22.3846 8.1497 20.915C8.50675 20.1014 9.07427 19.402 9.81141 18.9034C10.6714 18.3217 11.673 18.0699 12.7045 18.0699C12.8413 18.0699 12.9779 18.0699 13.1146 18.0723C13.5854 18.0803 14.0229 18.1242 14.4837 18.2261C15.1687 18.3778 15.8475 18.6307 16.4938 18.9004C16.6784 18.9774 16.8615 19.0719 17.0368 19.1679C17.3065 19.3155 17.5696 19.4771 17.8253 19.6478C18.5233 20.1139 19.1796 20.6585 19.7605 21.2645C21.3392 22.911 22.2829 24.9289 22.2829 27.236C22.2829 29.5866 21.4042 31.6471 19.7212 33.282C19.1615 33.8258 18.5357 34.2996 17.8699 34.7059C15.9147 35.8989 13.4342 36.6059 11.1415 36.6059C9.13623 36.6059 7.1045 36.1209 5.32023 35.2043C3.60622 34.3235 2.08577 33.0229 1.11011 31.3461C0.377001 30.0862 -3.05176e-05 28.6942 -3.05176e-05 27.236H5.00619e-05Z" fill="#BDBFC1"/>
<path fill-rule="evenodd" clip-rule="evenodd" d="M51.0576 22.9907C50.7168 22.5943 50.6896 22.0473 50.4599 21.6007C50.2511 21.1945 49.9611 20.9475 49.5715 20.7185C48.528 20.1055 47.2485 19.9302 46.0851 20.2749C45.6346 20.4084 45.1807 20.6294 44.8305 20.947C44.5636 21.1889 44.3381 21.5077 44.2969 21.8743C44.2447 22.3378 44.5038 22.7322 44.8331 23.0322C45.1105 23.2848 45.5386 23.4927 45.8687 23.6738C47.4962 24.5673 49.098 25.5054 50.7145 26.4184C52.4346 27.3898 53.7716 28.9694 54.0259 30.9757C54.2963 33.1098 53.2604 35.0332 51.6839 36.4062C50.2789 37.63 48.413 38.2237 46.5711 38.2996C45.1924 38.3564 43.7662 38.1269 42.4905 37.5949C41.292 37.095 40.1913 36.31 39.468 35.2164C38.3903 33.5871 38.4211 31.7078 39.0789 29.9216C39.1714 29.6704 39.3075 29.4173 39.4445 29.1876C39.5846 28.9525 39.7429 28.7129 39.9162 28.5009C40.0345 28.3561 40.2521 28.0894 40.4672 28.2011C40.6121 28.2763 40.6125 28.4402 40.5857 28.5782C40.5552 28.7354 40.4932 28.9035 40.4357 29.0526C39.8616 30.5419 39.6594 32.2446 40.3984 33.7167C41.0195 34.9536 42.1595 35.7295 43.4429 36.167C44.677 36.5877 46.0709 36.6907 47.2971 36.1845C48.1844 35.8182 48.9632 35.1173 49.1984 34.1585C49.3547 33.5208 49.2366 32.8844 48.9214 32.3144C48.4888 31.5324 47.7303 30.9392 46.9607 30.5128L46.957 30.5108L42.2382 27.6309L42.228 27.6227C40.4747 26.2074 39.8034 24.307 40.3498 22.1004C40.5887 21.1354 41.0531 20.2979 41.8438 19.6802C42.8469 18.8965 44.1725 18.6267 45.4142 18.5343C46.1313 18.4808 46.855 18.4836 47.5736 18.5085C48.3278 18.5348 49.0811 18.5864 49.8339 18.6392C50.5015 18.686 51.1692 18.7342 51.8376 18.7672L52.0601 18.778L51.3388 23.3177L51.0577 22.9908L51.0576 22.9907Z" fill="#BDBFC1"/>
<path d="M45.6962 46.9197L44.7927 45.6142H44.7392H43.7955V46.9197H42.7113V42.2333H44.7392C45.1541 42.2333 45.5144 42.3024 45.82 42.4408C46.1256 42.5792 46.361 42.7756 46.5261 43.03C46.6912 43.2844 46.7737 43.5856 46.7737 43.9338C46.7737 44.2819 46.69 44.582 46.5227 44.8342C46.3555 45.0864 46.1178 45.2794 45.81 45.4134L46.8608 46.9197H45.6962ZM45.6761 43.9338C45.6761 43.6704 45.5913 43.4685 45.4218 43.3278C45.2522 43.1873 45.0046 43.117 44.6789 43.117H43.7955V44.7505H44.6789C45.0046 44.7505 45.2522 44.6791 45.4218 44.5363C45.5913 44.3935 45.6761 44.1927 45.6761 43.9338ZM51.2578 46.0493V46.9197H47.6303V42.2333H51.1707V43.1036H48.7078V44.1213H50.8828V44.9648H48.7078V46.0493H51.2577H51.2578ZM53.6604 47C53.2901 47 52.932 46.9498 52.5863 46.8493C52.2405 46.7489 51.9627 46.6184 51.7531 46.4577L52.1212 45.6408C52.322 45.7881 52.5606 45.9064 52.8373 45.9956C53.1138 46.0849 53.3905 46.1295 53.6671 46.1295C53.975 46.1295 54.2025 46.0838 54.3498 45.9923C54.4971 45.9008 54.5706 45.7791 54.5706 45.6274C54.5706 45.5159 54.5271 45.4232 54.4401 45.3496C54.3531 45.276 54.2415 45.2168 54.1054 45.1722C53.9693 45.1276 53.7852 45.0785 53.5532 45.0249C53.1963 44.9401 52.9041 44.8553 52.6765 44.7705C52.449 44.6856 52.2537 44.5495 52.091 44.3621C51.9281 44.1746 51.8466 43.9247 51.8466 43.6122C51.8466 43.3399 51.9203 43.0934 52.0674 42.8724C52.2147 42.6515 52.4366 42.4762 52.7333 42.3469C53.03 42.2175 53.3926 42.1527 53.8209 42.1527C54.1199 42.1527 54.412 42.1884 54.6977 42.2598C54.9832 42.3313 55.2331 42.4339 55.4472 42.5678L55.1126 43.3913C54.6798 43.1457 54.247 43.023 53.8142 43.023C53.5108 43.023 53.2867 43.0721 53.1416 43.1703C52.9966 43.2685 52.9241 43.398 52.9241 43.5587C52.9241 43.7193 53.0078 43.8387 53.1751 43.9168C53.3424 43.9949 53.5979 44.0719 53.9414 44.1478C54.2983 44.2327 54.5905 44.3174 54.8182 44.4023C55.0456 44.4871 55.2409 44.6209 55.4037 44.8039C55.5665 44.9869 55.648 45.2346 55.648 45.547C55.648 45.8149 55.5733 46.0592 55.4238 46.2802C55.2743 46.501 55.0502 46.6763 54.7512 46.8057C54.4523 46.9351 54.0887 46.9998 53.6603 46.9998L53.6604 47ZM56.391 42.2332H57.4752V46.9196H56.391V42.2332ZM58.5861 42.2332H60.7144C61.223 42.2332 61.6725 42.3302 62.063 42.5244C62.4534 42.7185 62.7568 42.9919 62.9731 43.3445C63.1895 43.6971 63.2978 44.1077 63.2978 44.5764C63.2978 45.0451 63.1896 45.4557 62.9731 45.8083C62.7568 46.161 62.4534 46.4343 62.063 46.6285C61.6725 46.8227 61.223 46.9197 60.7144 46.9197H58.5861V42.2333V42.2332ZM60.6608 46.0292C61.1293 46.0292 61.503 45.8987 61.7819 45.6376C62.0607 45.3764 62.2001 45.0227 62.2001 44.5764C62.2001 44.13 62.0607 43.7763 61.7819 43.5152C61.503 43.2541 61.1294 43.1235 60.6608 43.1235H59.6703V46.0291H60.6608V46.0292ZM67.7417 46.0493V46.9197H64.1142V42.2333H67.6546V43.1036H65.1917V44.1213H67.3667V44.9648H65.1917V46.0493H67.7416H67.7417ZM72.9016 42.2333V46.9197H72.0115L69.6757 44.0743V46.9197H68.605V42.2333H69.5018L71.8308 45.0786V42.2333H72.9016ZM76.2546 47.0001C75.7772 47.0001 75.3456 46.8963 74.9596 46.6888C74.5736 46.4812 74.2702 46.1933 74.0493 45.8251C73.8286 45.4568 73.718 45.0407 73.718 44.5764C73.718 44.1123 73.8285 43.6961 74.0493 43.3278C74.2702 42.9595 74.5736 42.6717 74.9596 42.4641C75.3456 42.2566 75.7795 42.1528 76.2613 42.1528C76.6673 42.1528 77.0343 42.2242 77.3622 42.367C77.6902 42.5098 77.9657 42.7151 78.1887 42.9829L77.4927 43.6256C77.1759 43.2596 76.7833 43.0767 76.3148 43.0767C76.0248 43.0767 75.7659 43.1403 75.5385 43.2675C75.3109 43.3947 75.1335 43.5721 75.0064 43.7997C74.8792 44.0273 74.8157 44.2862 74.8157 44.5763C74.8157 44.8664 74.8792 45.1253 75.0064 45.3529C75.1335 45.5805 75.3109 45.7579 75.5385 45.8851C75.7659 46.0123 76.0248 46.0759 76.3148 46.0759C76.7833 46.0759 77.1759 45.8907 77.4927 45.5202L78.1887 46.1629C77.9657 46.4352 77.689 46.6427 77.3589 46.7856C77.0287 46.9284 76.6606 46.9998 76.2546 46.9998V47.0001ZM82.5457 46.0494V46.9198H78.9183V42.2333H82.4587V43.1037H79.9958V44.1213H82.1708V44.9649H79.9958V46.0494H82.5457H82.5457Z" fill="#E7A545"/>
</g>
<defs>
<clipPath id="clip0">
<rect width="123" height="47" fill="white"/>
</clipPath>
</defs>
</svg>
