<svg width="292" height="113" viewBox="0 0 292 113" fill="none" xmlns="http://www.w3.org/2000/svg">
<path fill-rule="evenodd" clip-rule="evenodd" d="M187.429 50.3116C186.622 49.3748 186.558 48.0814 186.014 47.0256C185.519 46.0652 184.832 45.4814 183.909 44.9401C181.437 43.4909 178.405 43.0763 175.649 43.8916C174.582 44.2071 173.506 44.7297 172.677 45.4802C172.044 46.0523 171.51 46.806 171.412 47.6725C171.289 48.7685 171.902 49.7007 172.683 50.4098C173.34 51.007 174.354 51.4986 175.136 51.927C178.992 54.0392 182.787 56.2569 186.616 58.4154C190.692 60.7121 193.859 64.4464 194.461 69.1894C195.102 74.2345 192.648 78.782 188.913 82.0278C185.584 84.9207 181.164 86.3244 176.8 86.5039C173.534 86.6383 170.155 86.0955 167.133 84.8377C164.293 83.6562 161.685 81.8001 159.972 79.2148C157.419 75.363 157.492 70.9199 159.05 66.6974C159.269 66.1033 159.592 65.5051 159.916 64.9619C160.248 64.4061 160.623 63.8399 161.034 63.3388C161.314 62.9963 161.83 62.3657 162.339 62.6297C162.682 62.8077 162.683 63.1952 162.62 63.5214C162.548 63.8932 162.401 64.2902 162.265 64.6429C160.905 68.1638 160.426 72.1891 162.176 75.6691C163.648 78.5933 166.349 80.4277 169.389 81.462C172.313 82.4566 175.615 82.7001 178.52 81.5035C180.623 80.6373 182.467 78.9804 183.024 76.7137C183.395 75.2062 183.115 73.7014 182.368 72.354C181.343 70.5052 179.546 69.1029 177.723 68.0949L177.714 68.0901L166.535 61.2817L166.511 61.2623C162.357 57.9164 160.766 53.4238 162.061 48.2069C162.627 45.9256 163.727 43.9456 165.601 42.4853C167.977 40.6325 171.118 39.9948 174.059 39.7762C175.759 39.6498 177.473 39.6562 179.175 39.7152C180.962 39.7772 182.747 39.8995 184.53 40.0243C186.112 40.1349 187.694 40.2489 189.277 40.3266L189.805 40.3524L188.096 51.0847L187.429 50.3116Z" fill="#F18917"/>
<path fill-rule="evenodd" clip-rule="evenodd" d="M138.868 44.477C137.786 44.472 136.706 44.4554 135.623 44.4999C134.056 44.5644 131.212 44.7762 130.203 46.1706C129.618 46.9795 129.767 48.0301 130.059 48.9213C130.344 49.4814 130.707 49.9212 131.27 50.2198C131.627 50.4086 132.025 50.5243 132.415 50.6201C132.909 50.7411 133.408 50.8374 133.902 50.9609L134.789 51.1829L134.095 51.7778C132.973 52.7408 131.57 53.1627 130.114 52.8343C127.836 52.3208 125.907 50.0669 125.907 47.7125C125.907 43.6367 128.463 41.3107 132.331 40.7575C133.409 40.6033 134.503 40.5137 135.59 40.4495C136.793 40.3787 137.999 40.3415 139.204 40.3194C140.792 40.2903 142.381 40.2893 143.97 40.2893C144.726 40.2893 145.516 40.2091 146.268 40.134C147.267 40.0343 148.264 39.9177 149.262 39.8116C150.544 39.6754 151.852 39.5413 153.14 39.5122C153.873 39.4955 155.178 39.4869 155.806 39.9056L156.482 40.3572L155.755 40.7212C155.223 40.9876 154.661 41.2004 154.11 41.424C153.31 41.7485 152.211 42.1979 151.706 42.9317C151.482 43.2567 151.387 43.6128 151.387 44.0055C151.387 47.2491 151.387 50.4926 151.387 53.7362C151.387 60.0687 151.387 66.4014 151.387 72.7341C151.387 73.6919 151.414 74.6626 151.516 75.6157C151.585 76.2549 151.689 76.9142 151.879 77.5294C152.115 78.2944 152.46 78.9215 153.125 79.3892C153.476 79.636 153.877 79.819 154.269 79.9888C154.769 80.205 155.267 80.4081 155.755 80.6521L157.544 81.5473H132.712L134.5 80.6521C135.009 80.3978 135.529 80.1881 136.05 79.9646C136.455 79.7911 136.87 79.6033 137.228 79.3463C137.849 78.9009 138.179 78.3118 138.405 77.5925C138.583 77.0252 138.682 76.4184 138.746 75.8286C138.842 74.9585 138.868 74.0723 138.868 73.1975V44.477Z" fill="#F18917"/>
<path fill-rule="evenodd" clip-rule="evenodd" d="M68.0502 58.1974L64.2274 67.549H71.6988C70.4627 64.4404 69.2813 61.3082 68.0502 58.1974ZM73.3404 71.7288H62.5186C61.694 73.7462 60.8692 75.7637 60.0445 77.781C59.877 78.191 59.789 78.6368 59.9988 79.0482C60.3556 79.7482 61.5924 80.2945 62.2647 80.6599L63.8982 81.5477H46.3115L49.6933 80.6193C50.8265 80.3082 51.971 79.806 52.9489 79.1522C53.4419 78.8227 54.2929 78.1669 54.5163 77.5958C56.1833 73.3374 57.8514 69.0793 59.518 64.8209C61.1478 60.6571 62.7879 56.4953 64.4002 52.3247C64.9397 50.9298 65.0848 50.6353 64.5463 49.2008C63.9516 47.717 63.2995 46.1707 62.4652 44.8042C61.8298 43.7633 61.0577 42.7926 60.0279 42.1163C58.1846 40.9061 55.8782 40.928 53.7732 41.228L52.3228 41.4351L53.3777 40.4199C54.9506 38.9065 56.0963 38.0595 58.2204 37.5293C61.3428 36.75 64.4266 36.8921 67.3729 38.2324C72.3153 40.4811 75.759 45.5926 78.1697 50.2595C79.3331 52.5118 80.3479 54.8407 81.2954 57.1906C82.1212 59.2388 82.8882 61.3072 83.693 63.3631C84.7168 65.9782 85.6616 68.623 86.6995 71.2327C90.3803 80.489 95.157 89.2658 106.476 89.2658H107.619L106.811 90.0726C103.846 93.0324 98.5914 93.4689 94.6478 93.0001C91.322 92.6048 87.4302 91.4087 84.8709 89.1699C84.2324 88.6112 83.6047 88.0405 82.9957 87.4496C81.0631 85.5745 79.4436 83.5831 78.009 81.3033C76.1267 78.312 74.6377 75.0138 73.3404 71.7288Z" fill="#F18917"/>
<path fill-rule="evenodd" clip-rule="evenodd" d="M0 60.3481C0 54.8559 2.15823 49.9559 5.97876 46.0473C9.16434 42.7879 13.5137 40.2602 17.9508 39.1738L18.9237 38.9354L18.4904 39.8372C17.906 41.0537 17.3153 42.2708 16.7592 43.5006C16.387 44.3239 16.013 45.1784 15.7372 46.0395L15.7286 46.0664L15.7169 46.092C14.7535 48.1975 14.2213 50.6343 13.9387 52.9233C13.6033 55.6407 13.5859 58.4418 13.8415 61.1668C14.16 64.5639 14.9323 68.1275 16.3653 71.2376C17.5616 73.8337 19.3571 76.3764 21.9615 77.7116C23.3423 78.4194 24.8296 78.7215 26.3778 78.6639C28.3574 78.5903 30.2109 78.0325 31.8701 76.9461C34.5021 75.223 36.2507 72.438 37.3204 69.5361C38.5383 66.2319 38.9829 62.5376 38.8199 59.0306C38.6382 55.1176 37.6744 50.9909 35.706 47.5764C34.9524 46.2694 33.934 45.1142 32.6112 44.3621C31.5032 43.7323 30.2673 43.4372 28.9938 43.503C26.9485 43.6088 25.0575 44.6243 23.6978 46.1293C22.0805 47.9198 21.3145 50.2477 21.3145 52.64C21.3145 53.3831 21.4116 54.0569 21.5727 54.7785C21.6684 55.2074 21.8655 55.817 21.5589 56.1973C21.3801 56.4193 21.1136 56.4848 20.8409 56.4848H20.6256L20.484 56.3229C17.9008 53.3658 17.7802 48.8786 19.3078 45.4045C20.1536 43.481 21.4983 41.8274 23.2444 40.6488C25.2819 39.2737 27.655 38.6784 30.0986 38.6784C30.4225 38.6784 30.7463 38.6782 31.0702 38.6839C32.1855 38.703 33.222 38.8066 34.3136 39.0477C35.9366 39.4062 37.5447 40.0043 39.0759 40.6417C39.5133 40.8238 39.947 41.0472 40.3623 41.274C41.0012 41.6231 41.6246 42.005 42.2305 42.4087C43.8842 43.5106 45.4388 44.7982 46.8153 46.2307C50.5554 50.1234 52.7911 54.8938 52.7911 60.3481C52.7911 65.9053 50.7094 70.7766 46.7223 74.6416C45.3962 75.9271 43.9134 77.0474 42.3362 78.0077C37.704 80.8283 31.8272 82.4995 26.3956 82.4995C21.645 82.4995 16.8316 81.3529 12.6045 79.1858C8.54387 77.104 4.94159 74.0289 2.63005 70.0647C0.893334 67.0861 0 63.7956 0 60.3481H0Z" fill="#F18917"/>
<path fill-rule="evenodd" clip-rule="evenodd" d="M120.962 50.3116C120.155 49.3748 120.09 48.0814 119.546 47.0256C119.051 46.0652 118.364 45.4814 117.441 44.9401C114.969 43.4909 111.938 43.0763 109.182 43.8916C108.114 44.2071 107.039 44.7297 106.209 45.4802C105.577 46.0523 105.043 46.806 104.945 47.6725C104.821 48.7685 105.435 49.7007 106.215 50.4098C106.873 51.007 107.887 51.4986 108.669 51.927C112.525 54.0392 116.319 56.2569 120.149 58.4154C124.224 60.7121 127.392 64.4464 127.994 69.1894C128.635 74.2345 126.18 78.782 122.446 82.0278C119.117 84.9207 114.696 86.3244 110.333 86.5039C107.066 86.6383 103.688 86.0955 100.665 84.8377C97.8257 83.6562 95.2181 81.8001 93.5044 79.2148C90.9512 75.363 91.0244 70.9199 92.5827 66.6974C92.802 66.1033 93.1246 65.5051 93.449 64.9619C93.7807 64.4061 94.1559 63.8399 94.5664 63.3388C94.8468 62.9963 95.3624 62.3657 95.8718 62.6297C96.2151 62.8077 96.216 63.1952 96.1526 63.5214C96.0806 63.8932 95.9334 64.2902 95.7972 64.6429C94.4374 68.1638 93.9582 72.1891 95.709 75.6691C97.1801 78.5933 99.8811 80.4277 102.922 81.462C105.846 82.4566 109.148 82.7001 112.053 81.5035C114.155 80.6373 116 78.9804 116.557 76.7137C116.927 75.2062 116.648 73.7014 115.901 72.354C114.876 70.5052 113.079 69.1029 111.256 68.0949L111.247 68.0901L100.068 61.2817L100.043 61.2623C95.8897 57.9164 94.2992 53.4238 95.5936 48.2069C96.1598 45.9256 97.2602 43.9456 99.1332 42.4853C101.51 40.6325 104.65 39.9948 107.592 39.7762C109.291 39.6498 111.006 39.6562 112.708 39.7152C114.495 39.7772 116.28 39.8995 118.063 40.0243C119.645 40.1349 121.226 40.2489 122.81 40.3266L123.337 40.3524L121.628 51.0847L120.962 50.3116Z" fill="#F18917"/>
<path fill-rule="evenodd" clip-rule="evenodd" d="M291.788 37.3354C282.182 76.6412 251.625 102.086 207.987 84.1581C226.786 23.0723 258.917 49.928 291.788 37.3354Z" fill="#0078BF"/>
<path fill-rule="evenodd" clip-rule="evenodd" d="M285.726 43.4916C279.152 45.0174 272.501 45.424 265.568 45.5489C257.885 45.6876 249.527 45.4194 242.05 47.3255C235.53 48.9874 230.417 52.1739 225.966 57.2163C220.065 63.9011 216.021 73.0821 213.122 81.7088C228.181 87.1281 244.327 88.0123 258.722 79.7506C272.261 71.98 280.915 58.101 285.726 43.4916Z" fill="#FBF7F1"/>
<path fill-rule="evenodd" clip-rule="evenodd" d="M275.274 16.1143C277.027 56.5349 254.788 89.4754 207.873 84.4031C208.866 20.5074 247.224 37.3559 275.274 16.1143Z" fill="#F18917"/>
<path fill-rule="evenodd" clip-rule="evenodd" d="M252.858 0C266.116 38.2327 254.241 76.1456 207.832 84.6763C190.48 23.1652 232.063 28.3615 252.858 0Z" fill="#FEFEFE"/>
<path fill-rule="evenodd" clip-rule="evenodd" d="M251.103 8.45221C246.405 13.2903 241.036 17.2287 235.277 21.0831C228.894 25.3542 221.723 29.6494 216.473 35.2952C211.895 40.2177 209.327 45.6614 208.322 52.3067C206.99 61.1173 208.574 71.0211 210.819 79.8406C226.433 76.2514 240.458 68.2834 248.084 53.5331C255.247 39.6797 254.988 23.3338 251.103 8.45221Z" fill="#0078BF"/>
<path d="M120.021 96.8274H122.336V100.987L125.598 96.8274H128.364L124.155 102.196L128.772 108.855H126.051L122.336 103.497V108.855H120.021V96.8274ZM134.094 96.8274H136.405L141.042 108.855H138.656L137.716 106.376H132.777L131.815 108.855H129.429L134.094 96.8274ZM135.252 100.024L133.619 104.164H136.877L135.252 100.024ZM142.807 96.8274H145.243C146.561 96.8274 147.508 96.9469 148.09 97.19C148.672 97.4332 149.134 97.8268 149.469 98.3684C149.805 98.9099 149.973 99.5602 149.973 100.32C149.973 101.16 149.752 101.858 149.31 102.414C148.871 102.969 148.272 103.357 147.515 103.576C147.069 103.701 146.261 103.763 145.089 103.763V108.855H142.807V96.8274ZM145.089 101.534H145.825C146.404 101.534 146.804 101.492 147.03 101.411C147.257 101.328 147.433 101.194 147.564 101.004C147.693 100.814 147.757 100.585 147.757 100.315C147.757 99.8479 147.576 99.5076 147.212 99.2949C146.95 99.1362 146.457 99.0552 145.741 99.0552H145.089V101.534ZM155.905 96.8274H158.215L162.852 108.855H160.467L159.527 106.376H154.588L153.626 108.855H151.24L155.905 96.8274ZM157.063 100.024L155.429 104.164H158.688L157.063 100.024ZM164.701 103.377H168.864V105.454H164.701V103.377ZM177.363 96.5254C179.066 96.5254 180.533 97.1428 181.758 98.3738C182.986 99.6048 183.598 101.107 183.598 102.877C183.598 104.634 182.994 106.119 181.783 107.334C180.574 108.548 179.106 109.157 177.38 109.157C175.57 109.157 174.069 108.531 172.874 107.283C171.677 106.035 171.079 104.553 171.079 102.835C171.079 101.688 171.359 100.63 171.915 99.6636C172.472 98.7006 173.238 97.9355 174.211 97.3716C175.188 96.8078 176.239 96.5254 177.363 96.5254ZM177.33 98.7701C176.219 98.7701 175.285 99.1584 174.53 99.9317C173.772 100.705 173.394 101.688 173.394 102.883C173.394 104.212 173.87 105.264 174.824 106.038C175.565 106.643 176.413 106.945 177.372 106.945C178.454 106.945 179.377 106.552 180.138 105.767C180.901 104.982 181.282 104.016 181.282 102.866C181.282 101.721 180.898 100.753 180.129 99.9594C179.363 99.1666 178.429 98.7701 177.33 98.7701ZM194.553 96.8274V108.855H192.271V101.325L187.732 108.855H185.76V96.8274H188.042V104.603L192.652 96.8274H194.553ZM186.868 93.5941H188.68C188.823 93.8177 189.018 93.985 189.273 94.0964C189.524 94.2078 189.835 94.2639 190.199 94.2639C190.568 94.2639 190.904 94.1998 191.203 94.0687C191.399 93.9824 191.569 93.823 191.718 93.5941H193.53C193.426 94.2863 193.094 94.842 192.534 95.2607C191.975 95.6794 191.195 95.8887 190.19 95.8887C189.514 95.8887 188.949 95.7941 188.493 95.6072C188.037 95.4201 187.67 95.152 187.391 94.8028C187.113 94.4537 186.938 94.0519 186.868 93.5941Z" fill="#0078BF"/>
<path d="M1.61719 14.1504H4.06934V20.3555L4.03418 22.0166L3.94629 23.9062H3.99902L9.93164 14.1504H13.1924V27H10.7666V20.8301C10.7666 20.0039 10.8193 18.7793 10.9248 17.1562H10.8545L4.89551 27H1.61719V14.1504ZM21.8936 16.2334C20.8682 16.2334 20.0742 16.6201 19.5117 17.3936C18.9492 18.1611 18.668 19.2334 18.668 20.6104C18.668 23.4756 19.7432 24.9082 21.8936 24.9082C22.7959 24.9082 23.8887 24.6826 25.1719 24.2314V26.5166C24.1172 26.9561 22.9395 27.1758 21.6387 27.1758C19.7695 27.1758 18.3398 26.6104 17.3496 25.4795C16.3594 24.3428 15.8643 22.7139 15.8643 20.5928C15.8643 19.2568 16.1074 18.0879 16.5938 17.0859C17.0801 16.0781 17.7773 15.3076 18.6855 14.7744C19.5996 14.2354 20.6689 13.9658 21.8936 13.9658C23.1416 13.9658 24.3955 14.2676 25.6553 14.8711L24.7764 17.0859C24.2959 16.8574 23.8125 16.6582 23.3262 16.4883C22.8398 16.3184 22.3623 16.2334 21.8936 16.2334ZM33.3721 16.2334C32.3467 16.2334 31.5527 16.6201 30.9902 17.3936C30.4277 18.1611 30.1465 19.2334 30.1465 20.6104C30.1465 23.4756 31.2217 24.9082 33.3721 24.9082C34.2744 24.9082 35.3672 24.6826 36.6504 24.2314V26.5166C35.5957 26.9561 34.418 27.1758 33.1172 27.1758C31.248 27.1758 29.8184 26.6104 28.8281 25.4795C27.8379 24.3428 27.3428 22.7139 27.3428 20.5928C27.3428 19.2568 27.5859 18.0879 28.0723 17.0859C28.5586 16.0781 29.2559 15.3076 30.1641 14.7744C31.0781 14.2354 32.1475 13.9658 33.3721 13.9658C34.6201 13.9658 35.874 14.2676 37.1338 14.8711L36.2549 17.0859C35.7744 16.8574 35.291 16.6582 34.8047 16.4883C34.3184 16.3184 33.8408 16.2334 33.3721 16.2334ZM48.1816 22.9834C48.1816 24.3193 47.7363 25.3242 46.8457 25.998C45.9609 26.666 44.6484 27 42.9082 27H39.3926V14.1504H42.1172V19.0811H42.9961C44.6426 19.0811 45.917 19.4238 46.8193 20.1094C47.7275 20.7891 48.1816 21.7471 48.1816 22.9834ZM42.1172 24.7676H42.8291C43.7256 24.7676 44.3818 24.6211 44.7979 24.3281C45.2139 24.0293 45.4219 23.5811 45.4219 22.9834C45.4219 22.3857 45.2197 21.958 44.8154 21.7002C44.417 21.4424 43.7139 21.3135 42.7061 21.3135H42.1172V24.7676ZM52.4619 27H49.7461V14.1504H52.4619V27ZM66.1816 27H63.0879L58.4297 20.4873V27H55.7051V14.1504H58.4297V20.373L63.0352 14.1504H65.9355L61.251 20.3203L66.1816 27ZM66.7178 23.2734V21.0762H71.4375V23.2734H66.7178ZM84.0762 27H80.9824L76.3242 20.4873V27H73.5996V14.1504H76.3242V20.373L80.9297 14.1504H83.8301L79.1455 20.3203L84.0762 27ZM95.8271 14.1504L91.8545 23.2383C91.3564 24.3809 90.8877 25.2012 90.4482 25.6992C90.0146 26.1973 89.499 26.5693 88.9014 26.8154C88.3037 27.0557 87.5771 27.1758 86.7217 27.1758C85.9893 27.1758 85.3066 27.0879 84.6738 26.9121V24.5742C85.1895 24.7852 85.8311 24.8906 86.5986 24.8906C87.085 24.8906 87.4775 24.7793 87.7764 24.5566C88.0752 24.3281 88.3242 23.9355 88.5234 23.3789L84.0762 14.1504H86.959L90.123 21.3135H90.2109L90.3691 20.874L93.0234 14.1504H95.8271ZM107.622 27H104.906V16.418H101.76L101.619 17.5957C101.256 20.5898 100.934 22.6934 100.652 23.9062C100.377 25.1133 99.9727 25.9629 99.4395 26.4551C98.9062 26.9473 98.1855 27.1875 97.2773 27.1758C96.7852 27.1758 96.3516 27.1113 95.9766 26.9824V24.75C96.3164 24.8672 96.6357 24.9258 96.9346 24.9258C97.2451 24.9258 97.4912 24.7852 97.6729 24.5039C97.8545 24.2168 98.0244 23.6895 98.1826 22.9219C98.3467 22.1484 98.5605 20.8857 98.8242 19.1338C99.0938 17.376 99.3223 15.7148 99.5098 14.1504H107.622V27ZM119.918 22.9834C119.918 25.6611 118.148 27 114.609 27H110.865V14.1504H113.59V19.0811H114.662C116.338 19.0811 117.633 19.4209 118.547 20.1006C119.461 20.7803 119.918 21.7412 119.918 22.9834ZM113.59 24.7676H114.504C115.424 24.7676 116.098 24.6211 116.525 24.3281C116.953 24.0293 117.167 23.5811 117.167 22.9834C117.167 22.3916 116.95 21.9668 116.517 21.709C116.083 21.4453 115.339 21.3135 114.284 21.3135H113.59V24.7676Z" fill="#0078BF"/>
</svg>
