<svg width="60" height="60" viewBox="0 0 60 60" fill="none" xmlns="http://www.w3.org/2000/svg">
<path d="M51.7969 0H8.20312C3.67996 0 0 3.67996 0 8.20312V51.7969C0 56.32 3.67996 60 8.20312 60H51.7969C56.32 60 60 56.32 60 51.7969V8.20312C60 3.67996 56.32 0 51.7969 0ZM57.6562 51.7969C57.6562 55.0278 55.0278 57.6562 51.7969 57.6562H8.20312C4.97223 57.6562 2.34375 55.0278 2.34375 51.7969V8.20312C2.34375 4.97223 4.97223 2.34375 8.20312 2.34375H51.7969C55.0278 2.34375 57.6562 4.97223 57.6562 8.20312V51.7969Z" fill="black"/>
<path d="M51.7969 4.6875H8.20312C6.2645 4.6875 4.6875 6.2645 4.6875 8.20312V51.7969C4.6875 53.7355 6.2645 55.3125 8.20312 55.3125H51.7969C53.7355 55.3125 55.3125 53.7355 55.3125 51.7969V18.826C55.3125 18.1787 54.7879 17.6541 54.1406 17.6541C53.4933 17.6541 52.9688 18.1787 52.9688 18.826V51.7969C52.9688 52.4432 52.4432 52.9688 51.7969 52.9688H8.20312C7.55676 52.9688 7.03125 52.4432 7.03125 51.7969V8.20312C7.03125 7.55676 7.55676 7.03125 8.20312 7.03125H51.7969C52.4432 7.03125 52.9688 7.55676 52.9688 8.20312V8.28323C52.9688 8.93051 53.4933 9.45511 54.1406 9.45511C54.7879 9.45511 55.3125 8.93051 55.3125 8.28323V8.20312C55.3125 6.2645 53.7355 4.6875 51.7969 4.6875Z" fill="black"/>
<path d="M26.8735 28.6185H32.5923C33.8246 28.6185 34.9814 28.1393 35.8507 27.2695C36.747 26.3741 37.2267 25.1826 37.2011 23.9146C37.1512 21.4248 35.0528 19.3992 32.5232 19.3992H26.8735C25.5812 19.3992 24.5297 20.4507 24.5297 21.7429V26.2748C24.5297 27.567 25.5812 28.6185 26.8735 28.6185ZM26.8735 21.7429H32.5232C33.7857 21.7429 34.8331 22.7381 34.8578 23.9617C34.8701 24.5856 34.6349 25.1711 34.1949 25.6106C34.194 25.611 34.1936 25.6115 34.1931 25.6119C33.7669 26.0395 33.1979 26.2748 32.5923 26.2748H26.8735V21.7429Z" fill="black"/>
<path d="M17.6569 45.5695C17.6569 46.8618 18.7079 47.9132 20.0006 47.9132H24.532C25.8243 47.9132 26.8758 46.8618 26.8758 45.5695V35.4845H32.3639C35.4304 35.4845 38.3134 34.2906 40.4814 32.1222C42.6842 29.9185 43.8775 26.9898 43.8418 23.8756C43.7736 17.6171 38.5657 12.5249 32.2325 12.5249H20.0006C18.7079 12.5249 17.6569 13.5764 17.6569 14.8687V32.9238C17.6569 33.571 18.1815 34.0956 18.8287 34.0956C19.4756 34.0956 20.0006 33.571 20.0006 32.9238V14.8687H32.2325C37.2871 14.8687 41.4441 18.9208 41.4986 23.9022C41.5265 26.3805 40.5766 28.7114 38.8243 30.4651C37.0985 32.1904 34.8042 33.1407 32.3639 33.1407H25.7039C25.0566 33.1407 24.532 33.6653 24.532 34.3126V45.5695H20.0006V43.4665C20.0006 42.8197 19.4756 42.2946 18.8287 42.2946C18.1815 42.2946 17.6569 42.8197 17.6569 43.4665V45.5695Z" fill="black"/>
<path d="M17.8537 38.8454C18.127 39.2514 18.6369 39.4519 19.113 39.3315C19.5826 39.2129 19.9347 38.8092 19.9923 38.329C20.05 37.8442 19.7841 37.3595 19.3464 37.1448C18.901 36.9264 18.3517 37.0157 18.0002 37.3663C17.6092 37.7559 17.5479 38.3862 17.8537 38.8454Z" fill="black"/>
<path d="M55.1143 12.9012C54.8392 12.4801 54.3004 12.2873 53.8193 12.4247C53.3537 12.5579 53.0145 12.9745 52.9733 13.456C52.9312 13.9426 53.2132 14.4169 53.6568 14.6183C54.0962 14.8174 54.6277 14.7213 54.9692 14.3802C55.3596 13.9902 55.4201 13.3594 55.1143 12.9012Z" fill="black"/>
</svg>
