<svg width="12" height="12" viewBox="0 0 12 12" fill="none" xmlns="http://www.w3.org/2000/svg">
<path fill-rule="evenodd" clip-rule="evenodd" d="M8.64964 7.06256C8.75067 7.111 8.8189 7.14372 8.84827 7.1918C8.88413 7.25154 8.88413 7.53834 8.76413 7.87327C8.64333 8.20767 8.05373 8.53033 7.7892 8.5542C7.74385 8.55831 7.70626 8.56733 7.66774 8.57658C7.48133 8.62131 7.27294 8.67131 6.05627 8.19607C4.69964 7.66586 3.80543 6.34984 3.62063 6.07786C3.60546 6.05554 3.59507 6.04024 3.5896 6.033L3.58936 6.03269C3.51607 5.93604 3 5.25556 3 4.55127C3 3.89167 3.3265 3.54574 3.47686 3.38645C3.48719 3.3755 3.49669 3.36543 3.5052 3.3562C3.6376 3.21287 3.79413 3.177 3.8904 3.177C3.94015 3.177 3.98994 3.18021 4.03806 3.1833C4.08304 3.1862 4.12655 3.189 4.1672 3.189C4.17729 3.189 4.1879 3.18832 4.19896 3.18761C4.28034 3.18237 4.38612 3.17556 4.492 3.42794C4.53055 3.51991 4.58644 3.65483 4.64578 3.79809C4.77158 4.10178 4.91287 4.44289 4.93733 4.49154C4.9736 4.5634 4.99773 4.647 4.94933 4.7426C4.94246 4.75636 4.93607 4.76936 4.92997 4.7818C4.89357 4.85596 4.86707 4.90996 4.80507 4.98167C4.78116 5.00937 4.75646 5.03921 4.73173 5.06907C4.68185 5.12931 4.63191 5.18963 4.5884 5.2326C4.51627 5.30394 4.44093 5.3814 4.52507 5.52474C4.60933 5.66834 4.8992 6.13714 5.3284 6.51687C5.7901 6.92534 6.19127 7.09803 6.39437 7.18545C6.43392 7.20248 6.46596 7.21627 6.48947 7.22794C6.634 7.29967 6.71813 7.28767 6.8024 7.1918C6.8868 7.0962 7.1636 6.77367 7.25973 6.6302C7.35587 6.48687 7.4524 6.51087 7.5848 6.5586C7.7168 6.6062 8.42693 6.953 8.57147 7.0246C8.59935 7.03844 8.62544 7.05095 8.64964 7.06256Z" fill="white"/>
<path fill-rule="evenodd" clip-rule="evenodd" d="M6 12C9.31371 12 12 9.31371 12 6C12 2.68629 9.31371 0 6 0C2.68629 0 0 2.68629 0 6C0 9.31371 2.68629 12 6 12ZM6 11C8.76142 11 11 8.76142 11 6C11 3.23858 8.76142 1 6 1C3.23858 1 1 3.23858 1 6C1 8.76142 3.23858 11 6 11Z" fill="white"/>
</svg>
