<svg width="18" height="21" viewBox="0 0 18 21" fill="none" xmlns="http://www.w3.org/2000/svg">
<path d="M10.032 17.192C8.352 17.192 6.832 16.824 5.472 16.088C4.128 15.336 3.072 14.312 2.304 13.016C1.536 11.704 1.152 10.232 1.152 8.6C1.152 6.968 1.536 5.504 2.304 4.208C3.072 2.896 4.136 1.872 5.496 1.136C6.856 0.384 8.376 0.0079999 10.056 0.0079999C11.368 0.0079999 12.568 0.232 13.656 0.68C14.744 1.112 15.672 1.76 16.44 2.624L14.88 4.136C13.616 2.808 12.04 2.144 10.152 2.144C8.904 2.144 7.776 2.424 6.768 2.984C5.76 3.544 4.968 4.32 4.392 5.312C3.832 6.288 3.552 7.384 3.552 8.6C3.552 9.816 3.832 10.92 4.392 11.912C4.968 12.888 5.76 13.656 6.768 14.216C7.776 14.776 8.904 15.056 10.152 15.056C12.024 15.056 13.6 14.384 14.88 13.04L16.44 14.552C15.672 15.416 14.736 16.072 13.632 16.52C12.544 16.968 11.344 17.192 10.032 17.192Z" fill="black"/>
<path d="M0 19.4H17.352V20.6H0V19.4Z" fill="black"/>
</svg>
