<svg width="20" height="20" viewBox="0 0 20 20" fill="none" xmlns="http://www.w3.org/2000/svg">
<path d="M5.60928 19.8205C5.51907 19.8246 5.43297 19.8287 5.34276 19.8287C4.37918 19.8287 3.57552 19.4801 2.94407 18.7954C2.93997 18.7913 2.93177 18.7831 2.92767 18.779C2.70215 18.5084 2.44793 18.2623 2.17731 18.004C1.99279 17.8277 1.80418 17.6473 1.62786 17.4587C0.787294 16.5812 0.791395 15.47 1.63606 14.6254L3.97325 12.2882C4.37508 11.8699 4.85482 11.6485 5.36326 11.6485C5.8676 11.6485 6.35144 11.8658 6.76557 12.28L8.14738 13.6618C8.27039 13.5921 8.3975 13.5306 8.52051 13.4691C8.67632 13.3912 8.81984 13.3174 8.94695 13.2395C10.2139 12.4358 11.362 11.3861 12.4609 10.0371C13.0145 9.34005 13.3794 8.75781 13.6377 8.15916C13.2769 7.83113 12.9407 7.49081 12.6167 7.15868C12.4978 7.03977 12.3789 6.91676 12.2559 6.79375C11.3784 5.91628 11.3784 4.8297 12.2559 3.95633L13.4163 2.79594C13.5516 2.66063 13.6828 2.52532 13.814 2.39411C14.0724 2.13169 14.3389 1.85697 14.6054 1.61095C15.0072 1.20912 15.4829 1 15.9872 1C16.4874 1 16.9713 1.20912 17.3895 1.61095L18.8451 3.06246C19.3782 3.5955 19.6816 4.24335 19.7472 4.99371C19.821 5.92859 19.6488 6.92086 19.206 8.11816C18.5212 9.9674 17.492 11.6854 15.9667 13.5224C14.1093 15.7366 11.8787 17.4874 9.32828 18.7216C8.3565 19.1849 7.0567 19.7262 5.60928 19.8205ZM15.1917 12.8786C16.6433 11.1319 17.615 9.50817 18.2588 7.76963C18.6565 6.69945 18.8041 5.86708 18.7426 5.07572C18.6975 4.56318 18.5007 4.13675 18.1317 3.77182L16.6843 2.3244C16.4628 2.11119 16.2209 2.00048 15.9831 2.00048C15.7494 2.00048 15.5198 2.11119 15.2984 2.3285C15.04 2.57042 14.7899 2.82464 14.5275 3.09116C14.3963 3.22647 14.261 3.36589 14.1216 3.5012L12.9612 4.66159C12.4855 5.13722 12.4855 5.60466 12.9612 6.0803C13.0842 6.20331 13.2072 6.32632 13.3261 6.44933C13.6869 6.81425 14.0232 7.15868 14.3963 7.49081C14.4045 7.49901 14.4086 7.50311 14.4168 7.51131C14.7489 7.84343 14.6997 8.16326 14.6177 8.40108C14.6136 8.41338 14.6095 8.42158 14.6054 8.43388C14.3061 9.15554 13.8837 9.84029 13.2359 10.6604C12.0673 12.0996 10.8372 13.219 9.47589 14.0841C9.30778 14.1907 9.13146 14.2809 8.95925 14.367C8.80344 14.445 8.65992 14.5188 8.53281 14.5967C8.51641 14.6049 8.50411 14.6131 8.48771 14.6213C8.3565 14.6869 8.22939 14.7197 8.09818 14.7197C7.77425 14.7197 7.56924 14.5147 7.50363 14.445L6.04802 12.9893C5.8266 12.7679 5.58878 12.6531 5.35506 12.6531C5.06804 12.6531 4.83432 12.8335 4.68261 12.9893L2.33722 15.3347C1.76317 15.9088 2.02559 16.4254 2.34952 16.7657C2.51353 16.942 2.68575 17.1061 2.86616 17.2824C3.14088 17.5448 3.42381 17.8195 3.68213 18.127C4.12496 18.6027 4.6498 18.8241 5.33456 18.8241C5.40016 18.8241 5.46987 18.82 5.53547 18.8159C6.81068 18.7339 7.99157 18.2377 8.88134 17.8154C11.3087 16.6468 13.4286 14.9862 15.1917 12.8786Z" fill="black" stroke="black" stroke-width="0.2"/>
</svg>
