<svg width="60" height="60" viewBox="0 0 60 60" fill="none" xmlns="http://www.w3.org/2000/svg">
<path d="M53.479 39.1871C53.421 39.0901 53.3599 38.9972 53.299 38.9151C52.693 38.0681 51.792 37.5082 50.764 37.3391C49.741 37.1701 48.704 37.411 47.86 38.0171L36.6799 46.0002H25C24.449 46.0002 24 45.5522 24 45.0002C24 44.4483 24.449 44.0003 25 44.0003H31.5C33.43 44.0003 35.0001 42.4303 35.0001 40.5002C35.0001 40.4892 34.999 40.3972 34.9981 40.3873C34.9361 38.4582 33.309 36.9542 31.4201 37.0003H18.4111C17.2581 37.0103 16.1351 37.4233 15.2501 38.1613L10.3601 42.2313C10.132 42.4223 10.0001 42.7033 10.0001 43.0003V55.0003C10.0001 55.5533 10.4481 56.0003 11.0001 56.0003H35.8111C37.4351 55.9983 39.0171 55.4263 40.2672 54.3913L52.3902 44.3743C54.037 43.201 54.5151 40.9231 53.479 39.1871ZM51.174 42.7891L38.993 52.8501C38.099 53.5902 36.968 53.9981 35.8099 54.0001H12V43.469L16.531 39.697C17.063 39.2541 17.736 39.006 18.42 39L31.452 38.999C32.281 38.998 32.9729 39.6251 33 40.5001C33 41.3271 32.327 42.0001 31.5 42.0001H25C23.346 42.0001 22 43.3461 22 45.0001C22 46.6541 23.346 48.0001 25 48.0001H37C37.208 48.0001 37.411 47.9351 37.583 47.8141L49.0249 39.6431C49.437 39.3471 49.9379 39.2321 50.44 39.3121C50.941 39.395 51.379 39.667 51.6799 40.087C51.7099 40.128 51.7369 40.17 51.7629 40.213C52.269 41.0601 52.034 42.1731 51.174 42.7891Z" fill="black"/>
<path d="M10.97 41H0V43H9.96996V58H0V60H10.97C11.522 60 11.97 59.553 11.97 59V42C11.97 41.447 11.522 41 10.97 41Z" fill="black"/>
<path d="M5.00013 50C3.34615 50 2.00013 51.346 2.00013 53C2.00013 54.654 3.34615 56 5.00013 56C6.65412 56 8.00013 54.654 8.00013 53C8.00013 51.346 6.65412 50 5.00013 50ZM5.00013 54C4.44912 54 4.00017 53.552 4.00017 53C4.00017 52.448 4.44912 52 5.00013 52C5.55115 52 6.00009 52.448 6.00009 53C6.00009 53.552 5.55115 54 5.00013 54Z" fill="black"/>
<path d="M59 31H0.999961C0.448008 31 0 31.447 0 32C0 35.8589 3.14004 38.9999 6.99996 38.9999H52.9999C56.8589 38.9999 59.9999 35.8589 59.9999 32C60 31.4471 59.553 31 59 31ZM53 37H6.99996C4.58496 37 2.565 35.279 2.10094 33H57.8989C57.435 35.279 55.415 37 53 37Z" fill="black"/>
<path d="M30.0002 5C15.6642 5 4.00013 16.664 4.00013 31V32C4.00013 32.553 4.44813 33 5.00009 33H55.0001C55.5531 33 56.0001 32.553 56.0001 32V31C56.0002 16.6639 44.3371 5 30.0002 5ZM6.00016 30.9999C6.00016 17.7669 16.7671 6.99992 30.0002 6.99992C43.2332 6.99992 54.0002 17.7669 54.0002 30.9999H6.00016Z" fill="black"/>
<path d="M13.552 16.407C12.853 17.193 12.2051 18.034 11.6261 18.908L13.2931 20.013C13.8211 19.2169 14.411 18.4499 15.047 17.735L13.552 16.407Z" fill="black"/>
<path d="M30.0002 9C24.3842 9.00305 19.0372 11.125 14.9452 14.972L16.3153 16.429C20.0353 12.9309 24.8962 11.003 30.0013 11L30.0002 9Z" fill="black"/>
<path d="M33.0001 0H27.0001V2.00004H33.0001V0Z" fill="black"/>
<path d="M31.0002 1H29.0002V6.00004H31.0002V1Z" fill="black"/>
</svg>
